<?xml version="1.0" encoding="utf-8" standalone="no"?>
<!DOCTYPE svg PUBLIC "-//W3C//DTD SVG 1.1//EN"
  "http://www.w3.org/Graphics/SVG/1.1/DTD/svg11.dtd">
<svg xmlns:xlink="http://www.w3.org/1999/xlink" width="864pt" height="273.6pt" viewBox="0 0 864 273.6" xmlns="http://www.w3.org/2000/svg" version="1.1">
 <metadata>
  <rdf:RDF xmlns:dc="http://purl.org/dc/elements/1.1/" xmlns:cc="http://creativecommons.org/ns#" xmlns:rdf="http://www.w3.org/1999/02/22-rdf-syntax-ns#">
   <cc:Work>
    <dc:type rdf:resource="http://purl.org/dc/dcmitype/StillImage"/>
    <dc:date>2026-06-21T18:23:24.328049</dc:date>
    <dc:format>image/svg+xml</dc:format>
    <dc:creator>
     <cc:Agent>
      <dc:title>Matplotlib v3.11.0, https://matplotlib.org/</dc:title>
     </cc:Agent>
    </dc:creator>
   </cc:Work>
  </rdf:RDF>
 </metadata>
 <defs>
  <style type="text/css">*{stroke-linejoin: round; stroke-linecap: butt}</style>
 </defs>
 <g id="figure_1">
  <g id="patch_1">
   <path d="M 0 273.6 
L 864 273.6 
L 864 0 
L 0 0 
z
" style="fill: #0d1117"/>
  </g>
  <g id="axes_1">
   <g id="patch_2">
    <path d="M 44.142857 209.22546 
L 853.2 209.22546 
L 853.2 29.917187 
L 44.142857 29.917187 
z
" style="fill: #0d1117"/>
   </g>
   <g id="FillBetweenPolyCollection_1">
    <defs>
     <path id="mbacb689268" d="M 80.918182 -72.524916 
L 80.918182 -72.524916 
L 84.959426 -72.524916 
L 89.000671 -72.524916 
L 93.041915 -72.524916 
L 97.08316 -72.524916 
L 101.124404 -72.524916 
L 105.165649 -72.524916 
L 109.206893 -72.524916 
L 113.248138 -72.524916 
L 117.289382 -72.524916 
L 121.330627 -72.524916 
L 125.371871 -72.524916 
L 129.413115 -72.524916 
L 133.45436 -72.524916 
L 137.495604 -72.524916 
L 141.536849 -72.524916 
L 145.578093 -72.524916 
L 149.619338 -72.524916 
L 153.660582 -72.524916 
L 157.701827 -72.524916 
L 161.743071 -72.524916 
L 165.784316 -72.524916 
L 169.82556 -72.524916 
L 173.866805 -72.524916 
L 177.908049 -72.524916 
L 181.949294 -72.524916 
L 185.990538 -72.524916 
L 190.031783 -72.524916 
L 194.073027 -72.524916 
L 198.114271 -72.524916 
L 202.155516 -72.524916 
L 206.19676 -72.524916 
L 210.238005 -72.524916 
L 214.279249 -72.524916 
L 218.320494 -72.524916 
L 222.361738 -72.524916 
L 226.402983 -72.524916 
L 230.444227 -72.524916 
L 234.485472 -72.524916 
L 238.526716 -72.524916 
L 242.567961 -72.524916 
L 246.609205 -72.524916 
L 250.65045 -72.524916 
L 254.691694 -72.524916 
L 258.732938 -72.524916 
L 262.774183 -72.524916 
L 266.815427 -72.524916 
L 270.856672 -72.524916 
L 274.897916 -72.524916 
L 278.939161 -72.524916 
L 282.980405 -72.524916 
L 287.02165 -72.524916 
L 291.062894 -72.524916 
L 295.104139 -72.524916 
L 299.145383 -72.524916 
L 303.186628 -72.524916 
L 307.227872 -72.524916 
L 311.269117 -72.524916 
L 315.310361 -72.524916 
L 319.351606 -72.524916 
L 323.39285 -72.524916 
L 327.434094 -72.524916 
L 331.475339 -72.524916 
L 335.516583 -72.524916 
L 339.557828 -72.524916 
L 343.599072 -72.524916 
L 347.640317 -72.524916 
L 351.681561 -72.524916 
L 355.722806 -72.524916 
L 359.76405 -72.524916 
L 363.805295 -72.524916 
L 367.846539 -72.524916 
L 371.887784 -72.524916 
L 375.929028 -72.524916 
L 379.970273 -72.524916 
L 384.011517 -72.524916 
L 388.052762 -72.524916 
L 392.094006 -72.524916 
L 396.13525 -72.524916 
L 400.176495 -72.524916 
L 404.217739 -72.524916 
L 408.258984 -72.524916 
L 412.300228 -72.524916 
L 416.341473 -72.524916 
L 420.382717 -72.524916 
L 424.423962 -72.524916 
L 428.465206 -72.524916 
L 432.506451 -72.524916 
L 436.547695 -72.524916 
L 440.58894 -72.524916 
L 444.630184 -72.524916 
L 448.671429 -72.524916 
L 452.712673 -72.524916 
L 456.753918 -72.524916 
L 460.795162 -72.524916 
L 464.836406 -72.524916 
L 468.877651 -72.524916 
L 472.918895 -72.524916 
L 476.96014 -72.524916 
L 481.001384 -72.524916 
L 485.042629 -72.524916 
L 489.083873 -72.524916 
L 493.125118 -72.524916 
L 497.166362 -72.524916 
L 501.207607 -72.524916 
L 505.248851 -72.524916 
L 509.290096 -72.524916 
L 513.33134 -72.524916 
L 517.372585 -72.524916 
L 521.413829 -72.524916 
L 525.455073 -72.524916 
L 529.496318 -72.524916 
L 533.537562 -72.524916 
L 537.578807 -72.524916 
L 541.620051 -72.524916 
L 545.661296 -72.524916 
L 549.70254 -72.524916 
L 553.743785 -72.524916 
L 557.785029 -72.524916 
L 561.826274 -72.524916 
L 565.867518 -72.524916 
L 569.908763 -72.524916 
L 573.950007 -72.524916 
L 577.991252 -72.524916 
L 582.032496 -72.524916 
L 586.073741 -72.524916 
L 590.114985 -72.524916 
L 594.156229 -72.524916 
L 598.197474 -72.524916 
L 602.238718 -72.524916 
L 606.279963 -72.524916 
L 610.321207 -72.524916 
L 614.362452 -72.524916 
L 618.403696 -72.524916 
L 622.444941 -72.524916 
L 626.486185 -72.524916 
L 630.52743 -72.524916 
L 634.568674 -72.524916 
L 638.609919 -72.524916 
L 642.651163 -72.524916 
L 646.692408 -72.524916 
L 650.733652 -72.524916 
L 654.774897 -72.524916 
L 658.816141 -72.524916 
L 662.857385 -72.524916 
L 666.89863 -72.524916 
L 670.939874 -72.524916 
L 674.981119 -72.524916 
L 679.022363 -72.524916 
L 683.063608 -72.524916 
L 687.104852 -72.524916 
L 691.146097 -72.524916 
L 695.187341 -72.524916 
L 699.228586 -72.524916 
L 703.26983 -72.524916 
L 707.311075 -72.524916 
L 711.352319 -72.524916 
L 715.393564 -72.524916 
L 719.434808 -72.524916 
L 723.476053 -72.524916 
L 727.517297 -72.524916 
L 731.558541 -72.524916 
L 735.599786 -72.524916 
L 739.64103 -72.524916 
L 743.682275 -72.524916 
L 747.723519 -72.524916 
L 751.764764 -72.524916 
L 755.806008 -72.524916 
L 759.847253 -72.524916 
L 763.888497 -72.524916 
L 767.929742 -72.524916 
L 771.970986 -72.524916 
L 776.012231 -72.524916 
L 780.053475 -72.524916 
L 784.09472 -72.524916 
L 788.135964 -72.524916 
L 792.177209 -72.524916 
L 796.218453 -72.524916 
L 800.259697 -72.524916 
L 804.300942 -72.524916 
L 808.342186 -72.524916 
L 812.383431 -72.524916 
L 816.424675 -235.532436 
L 816.424675 -72.524916 
L 816.424675 -72.524916 
L 812.383431 -72.524916 
L 808.342186 -72.524916 
L 804.300942 -72.524916 
L 800.259697 -72.524916 
L 796.218453 -72.524916 
L 792.177209 -72.524916 
L 788.135964 -72.524916 
L 784.09472 -72.524916 
L 780.053475 -72.524916 
L 776.012231 -72.524916 
L 771.970986 -72.524916 
L 767.929742 -72.524916 
L 763.888497 -72.524916 
L 759.847253 -72.524916 
L 755.806008 -72.524916 
L 751.764764 -72.524916 
L 747.723519 -72.524916 
L 743.682275 -72.524916 
L 739.64103 -72.524916 
L 735.599786 -72.524916 
L 731.558541 -72.524916 
L 727.517297 -72.524916 
L 723.476053 -72.524916 
L 719.434808 -72.524916 
L 715.393564 -72.524916 
L 711.352319 -72.524916 
L 707.311075 -72.524916 
L 703.26983 -72.524916 
L 699.228586 -72.524916 
L 695.187341 -72.524916 
L 691.146097 -72.524916 
L 687.104852 -72.524916 
L 683.063608 -72.524916 
L 679.022363 -72.524916 
L 674.981119 -72.524916 
L 670.939874 -72.524916 
L 666.89863 -72.524916 
L 662.857385 -72.524916 
L 658.816141 -72.524916 
L 654.774897 -72.524916 
L 650.733652 -72.524916 
L 646.692408 -72.524916 
L 642.651163 -72.524916 
L 638.609919 -72.524916 
L 634.568674 -72.524916 
L 630.52743 -72.524916 
L 626.486185 -72.524916 
L 622.444941 -72.524916 
L 618.403696 -72.524916 
L 614.362452 -72.524916 
L 610.321207 -72.524916 
L 606.279963 -72.524916 
L 602.238718 -72.524916 
L 598.197474 -72.524916 
L 594.156229 -72.524916 
L 590.114985 -72.524916 
L 586.073741 -72.524916 
L 582.032496 -72.524916 
L 577.991252 -72.524916 
L 573.950007 -72.524916 
L 569.908763 -72.524916 
L 565.867518 -72.524916 
L 561.826274 -72.524916 
L 557.785029 -72.524916 
L 553.743785 -72.524916 
L 549.70254 -72.524916 
L 545.661296 -72.524916 
L 541.620051 -72.524916 
L 537.578807 -72.524916 
L 533.537562 -72.524916 
L 529.496318 -72.524916 
L 525.455073 -72.524916 
L 521.413829 -72.524916 
L 517.372585 -72.524916 
L 513.33134 -72.524916 
L 509.290096 -72.524916 
L 505.248851 -72.524916 
L 501.207607 -72.524916 
L 497.166362 -72.524916 
L 493.125118 -72.524916 
L 489.083873 -72.524916 
L 485.042629 -72.524916 
L 481.001384 -72.524916 
L 476.96014 -72.524916 
L 472.918895 -72.524916 
L 468.877651 -72.524916 
L 464.836406 -72.524916 
L 460.795162 -72.524916 
L 456.753918 -72.524916 
L 452.712673 -72.524916 
L 448.671429 -72.524916 
L 444.630184 -72.524916 
L 440.58894 -72.524916 
L 436.547695 -72.524916 
L 432.506451 -72.524916 
L 428.465206 -72.524916 
L 424.423962 -72.524916 
L 420.382717 -72.524916 
L 416.341473 -72.524916 
L 412.300228 -72.524916 
L 408.258984 -72.524916 
L 404.217739 -72.524916 
L 400.176495 -72.524916 
L 396.13525 -72.524916 
L 392.094006 -72.524916 
L 388.052762 -72.524916 
L 384.011517 -72.524916 
L 379.970273 -72.524916 
L 375.929028 -72.524916 
L 371.887784 -72.524916 
L 367.846539 -72.524916 
L 363.805295 -72.524916 
L 359.76405 -72.524916 
L 355.722806 -72.524916 
L 351.681561 -72.524916 
L 347.640317 -72.524916 
L 343.599072 -72.524916 
L 339.557828 -72.524916 
L 335.516583 -72.524916 
L 331.475339 -72.524916 
L 327.434094 -72.524916 
L 323.39285 -72.524916 
L 319.351606 -72.524916 
L 315.310361 -72.524916 
L 311.269117 -72.524916 
L 307.227872 -72.524916 
L 303.186628 -72.524916 
L 299.145383 -72.524916 
L 295.104139 -72.524916 
L 291.062894 -72.524916 
L 287.02165 -72.524916 
L 282.980405 -72.524916 
L 278.939161 -72.524916 
L 274.897916 -72.524916 
L 270.856672 -72.524916 
L 266.815427 -72.524916 
L 262.774183 -72.524916 
L 258.732938 -72.524916 
L 254.691694 -72.524916 
L 250.65045 -72.524916 
L 246.609205 -72.524916 
L 242.567961 -72.524916 
L 238.526716 -72.524916 
L 234.485472 -72.524916 
L 230.444227 -72.524916 
L 226.402983 -72.524916 
L 222.361738 -72.524916 
L 218.320494 -72.524916 
L 214.279249 -72.524916 
L 210.238005 -72.524916 
L 206.19676 -72.524916 
L 202.155516 -72.524916 
L 198.114271 -72.524916 
L 194.073027 -72.524916 
L 190.031783 -72.524916 
L 185.990538 -72.524916 
L 181.949294 -72.524916 
L 177.908049 -72.524916 
L 173.866805 -72.524916 
L 169.82556 -72.524916 
L 165.784316 -72.524916 
L 161.743071 -72.524916 
L 157.701827 -72.524916 
L 153.660582 -72.524916 
L 149.619338 -72.524916 
L 145.578093 -72.524916 
L 141.536849 -72.524916 
L 137.495604 -72.524916 
L 133.45436 -72.524916 
L 129.413115 -72.524916 
L 125.371871 -72.524916 
L 121.330627 -72.524916 
L 117.289382 -72.524916 
L 113.248138 -72.524916 
L 109.206893 -72.524916 
L 105.165649 -72.524916 
L 101.124404 -72.524916 
L 97.08316 -72.524916 
L 93.041915 -72.524916 
L 89.000671 -72.524916 
L 84.959426 -72.524916 
L 80.918182 -72.524916 
z
" style="stroke: #58a6ff; stroke-opacity: 0.2"/>
    </defs>
    <g clip-path="url(#pd5c7983207)">
     <use xlink:href="#mbacb689268" x="0" y="273.6" style="fill: #58a6ff; fill-opacity: 0.2; stroke: #58a6ff; stroke-opacity: 0.2"/>
    </g>
   </g>
   <g id="matplotlib.axis_1">
    <g id="xtick_1">
     <g id="line2d_1">
      <path d="M 125.371871 209.22546 
L 125.371871 29.917187 
" clip-path="url(#pd5c7983207)" style="fill: none; stroke-dasharray: 2.96,1.28; stroke-dashoffset: 0; stroke: #30363d; stroke-opacity: 0.25; stroke-width: 0.8"/>
     </g>
     <g id="line2d_2">
      <defs>
       <path id="m9551428683" d="M 0 0 
L 0 3.5 
" style="stroke: #8b949e; stroke-width: 0.8"/>
      </defs>
      <g>
       <use xlink:href="#m9551428683" x="125.371871" y="209.22546" style="fill: #8b949e; stroke: #8b949e; stroke-width: 0.8"/>
      </g>
     </g>
     <g id="text_1">
      <!-- Jan 2026 -->
      <g style="fill: #8b949e" transform="translate(86.027693 244.827099) rotate(-30) scale(0.1 -0.1)">
       <defs>
        <path id="DejaVuSans-2d" d="M 628 4666 
L 1259 4666 
L 1259 325 
Q 1259 -519 939 -900 
Q 619 -1281 -91 -1281 
L -331 -1281 
L -331 -750 
L -134 -750 
Q 284 -750 456 -515 
Q 628 -281 628 325 
L 628 4666 
z
" transform="scale(0.015625)"/>
        <path id="DejaVuSans-44" d="M 2194 1759 
Q 1497 1759 1228 1600 
Q 959 1441 959 1056 
Q 959 750 1161 570 
Q 1363 391 1709 391 
Q 2188 391 2477 730 
Q 2766 1069 2766 1631 
L 2766 1759 
L 2194 1759 
z
M 3341 1997 
L 3341 0 
L 2766 0 
L 2766 531 
Q 2569 213 2275 61 
Q 1981 -91 1556 -91 
Q 1019 -91 701 211 
Q 384 513 384 1019 
Q 384 1609 779 1909 
Q 1175 2209 1959 2209 
L 2766 2209 
L 2766 2266 
Q 2766 2663 2505 2880 
Q 2244 3097 1772 3097 
Q 1472 3097 1187 3025 
Q 903 2953 641 2809 
L 641 3341 
Q 956 3463 1253 3523 
Q 1550 3584 1831 3584 
Q 2591 3584 2966 3190 
Q 3341 2797 3341 1997 
z
" transform="scale(0.015625)"/>
        <path id="DejaVuSans-51" d="M 3513 2113 
L 3513 0 
L 2938 0 
L 2938 2094 
Q 2938 2591 2744 2837 
Q 2550 3084 2163 3084 
Q 1697 3084 1428 2787 
Q 1159 2491 1159 1978 
L 1159 0 
L 581 0 
L 581 3500 
L 1159 3500 
L 1159 2956 
Q 1366 3272 1645 3428 
Q 1925 3584 2291 3584 
Q 2894 3584 3203 3211 
Q 3513 2838 3513 2113 
z
" transform="scale(0.015625)"/>
        <path id="DejaVuSans-3" transform="scale(0.015625)"/>
        <path id="DejaVuSans-15" d="M 1228 531 
L 3431 531 
L 3431 0 
L 469 0 
L 469 531 
Q 828 903 1448 1529 
Q 2069 2156 2228 2338 
Q 2531 2678 2651 2914 
Q 2772 3150 2772 3378 
Q 2772 3750 2511 3984 
Q 2250 4219 1831 4219 
Q 1534 4219 1204 4116 
Q 875 4013 500 3803 
L 500 4441 
Q 881 4594 1212 4672 
Q 1544 4750 1819 4750 
Q 2544 4750 2975 4387 
Q 3406 4025 3406 3419 
Q 3406 3131 3298 2873 
Q 3191 2616 2906 2266 
Q 2828 2175 2409 1742 
Q 1991 1309 1228 531 
z
" transform="scale(0.015625)"/>
        <path id="DejaVuSans-13" d="M 2034 4250 
Q 1547 4250 1301 3770 
Q 1056 3291 1056 2328 
Q 1056 1369 1301 889 
Q 1547 409 2034 409 
Q 2525 409 2770 889 
Q 3016 1369 3016 2328 
Q 3016 3291 2770 3770 
Q 2525 4250 2034 4250 
z
M 2034 4750 
Q 2819 4750 3233 4129 
Q 3647 3509 3647 2328 
Q 3647 1150 3233 529 
Q 2819 -91 2034 -91 
Q 1250 -91 836 529 
Q 422 1150 422 2328 
Q 422 3509 836 4129 
Q 1250 4750 2034 4750 
z
" transform="scale(0.015625)"/>
        <path id="DejaVuSans-19" d="M 2113 2584 
Q 1688 2584 1439 2293 
Q 1191 2003 1191 1497 
Q 1191 994 1439 701 
Q 1688 409 2113 409 
Q 2538 409 2786 701 
Q 3034 994 3034 1497 
Q 3034 2003 2786 2293 
Q 2538 2584 2113 2584 
z
M 3366 4563 
L 3366 3988 
Q 3128 4100 2886 4159 
Q 2644 4219 2406 4219 
Q 1781 4219 1451 3797 
Q 1122 3375 1075 2522 
Q 1259 2794 1537 2939 
Q 1816 3084 2150 3084 
Q 2853 3084 3261 2657 
Q 3669 2231 3669 1497 
Q 3669 778 3244 343 
Q 2819 -91 2113 -91 
Q 1303 -91 875 529 
Q 447 1150 447 2328 
Q 447 3434 972 4092 
Q 1497 4750 2381 4750 
Q 2619 4750 2861 4703 
Q 3103 4656 3366 4563 
z
" transform="scale(0.015625)"/>
       </defs>
       <use xlink:href="#DejaVuSans-2d"/>
       <use xlink:href="#DejaVuSans-44" transform="translate(29.5 0)"/>
       <use xlink:href="#DejaVuSans-51" transform="translate(90.78125 0)"/>
       <use xlink:href="#DejaVuSans-3" transform="translate(154.15625 0)"/>
       <use xlink:href="#DejaVuSans-15" transform="translate(185.9375 0)"/>
       <use xlink:href="#DejaVuSans-13" transform="translate(249.5625 0)"/>
       <use xlink:href="#DejaVuSans-15" transform="translate(313.1875 0)"/>
       <use xlink:href="#DejaVuSans-19" transform="translate(376.8125 0)"/>
      </g>
     </g>
    </g>
    <g id="xtick_2">
     <g id="line2d_3">
      <path d="M 250.65045 209.22546 
L 250.65045 29.917187 
" clip-path="url(#pd5c7983207)" style="fill: none; stroke-dasharray: 2.96,1.28; stroke-dashoffset: 0; stroke: #30363d; stroke-opacity: 0.25; stroke-width: 0.8"/>
     </g>
     <g id="line2d_4">
      <g>
       <use xlink:href="#m9551428683" x="250.65045" y="209.22546" style="fill: #8b949e; stroke: #8b949e; stroke-width: 0.8"/>
      </g>
     </g>
     <g id="text_2">
      <!-- Feb 2026 -->
      <g style="fill: #8b949e" transform="translate(209.322532 245.973088) rotate(-30) scale(0.1 -0.1)">
       <defs>
        <path id="DejaVuSans-29" d="M 628 4666 
L 3309 4666 
L 3309 4134 
L 1259 4134 
L 1259 2759 
L 3109 2759 
L 3109 2228 
L 1259 2228 
L 1259 0 
L 628 0 
L 628 4666 
z
" transform="scale(0.015625)"/>
        <path id="DejaVuSans-48" d="M 3597 1894 
L 3597 1613 
L 953 1613 
Q 991 1019 1311 708 
Q 1631 397 2203 397 
Q 2534 397 2845 478 
Q 3156 559 3463 722 
L 3463 178 
Q 3153 47 2828 -22 
Q 2503 -91 2169 -91 
Q 1331 -91 842 396 
Q 353 884 353 1716 
Q 353 2575 817 3079 
Q 1281 3584 2069 3584 
Q 2775 3584 3186 3129 
Q 3597 2675 3597 1894 
z
M 3022 2063 
Q 3016 2534 2758 2815 
Q 2500 3097 2075 3097 
Q 1594 3097 1305 2825 
Q 1016 2553 972 2059 
L 3022 2063 
z
" transform="scale(0.015625)"/>
        <path id="DejaVuSans-45" d="M 3116 1747 
Q 3116 2381 2855 2742 
Q 2594 3103 2138 3103 
Q 1681 3103 1420 2742 
Q 1159 2381 1159 1747 
Q 1159 1113 1420 752 
Q 1681 391 2138 391 
Q 2594 391 2855 752 
Q 3116 1113 3116 1747 
z
M 1159 2969 
Q 1341 3281 1617 3432 
Q 1894 3584 2278 3584 
Q 2916 3584 3314 3078 
Q 3713 2572 3713 1747 
Q 3713 922 3314 415 
Q 2916 -91 2278 -91 
Q 1894 -91 1617 61 
Q 1341 213 1159 525 
L 1159 0 
L 581 0 
L 581 4863 
L 1159 4863 
L 1159 2969 
z
" transform="scale(0.015625)"/>
       </defs>
       <use xlink:href="#DejaVuSans-29"/>
       <use xlink:href="#DejaVuSans-48" transform="translate(52.046875 0)"/>
       <use xlink:href="#DejaVuSans-45" transform="translate(113.578125 0)"/>
       <use xlink:href="#DejaVuSans-3" transform="translate(177.0625 0)"/>
       <use xlink:href="#DejaVuSans-15" transform="translate(208.84375 0)"/>
       <use xlink:href="#DejaVuSans-13" transform="translate(272.46875 0)"/>
       <use xlink:href="#DejaVuSans-15" transform="translate(336.09375 0)"/>
       <use xlink:href="#DejaVuSans-19" transform="translate(399.71875 0)"/>
      </g>
     </g>
    </g>
    <g id="xtick_3">
     <g id="line2d_5">
      <path d="M 363.805295 209.22546 
L 363.805295 29.917187 
" clip-path="url(#pd5c7983207)" style="fill: none; stroke-dasharray: 2.96,1.28; stroke-dashoffset: 0; stroke: #30363d; stroke-opacity: 0.25; stroke-width: 0.8"/>
     </g>
     <g id="line2d_6">
      <g>
       <use xlink:href="#m9551428683" x="363.805295" y="209.22546" style="fill: #8b949e; stroke: #8b949e; stroke-width: 0.8"/>
      </g>
     </g>
     <g id="text_3">
      <!-- Mar 2026 -->
      <g style="fill: #8b949e" transform="translate(321.471976 246.55288) rotate(-30) scale(0.1 -0.1)">
       <defs>
        <path id="DejaVuSans-30" d="M 628 4666 
L 1569 4666 
L 2759 1491 
L 3956 4666 
L 4897 4666 
L 4897 0 
L 4281 0 
L 4281 4097 
L 3078 897 
L 2444 897 
L 1241 4097 
L 1241 0 
L 628 0 
L 628 4666 
z
" transform="scale(0.015625)"/>
        <path id="DejaVuSans-55" d="M 2631 2963 
Q 2534 3019 2420 3045 
Q 2306 3072 2169 3072 
Q 1681 3072 1420 2755 
Q 1159 2438 1159 1844 
L 1159 0 
L 581 0 
L 581 3500 
L 1159 3500 
L 1159 2956 
Q 1341 3275 1631 3429 
Q 1922 3584 2338 3584 
Q 2397 3584 2469 3576 
Q 2541 3569 2628 3553 
L 2631 2963 
z
" transform="scale(0.015625)"/>
       </defs>
       <use xlink:href="#DejaVuSans-30"/>
       <use xlink:href="#DejaVuSans-44" transform="translate(86.28125 0)"/>
       <use xlink:href="#DejaVuSans-55" transform="translate(147.5625 0)"/>
       <use xlink:href="#DejaVuSans-3" transform="translate(188.671875 0)"/>
       <use xlink:href="#DejaVuSans-15" transform="translate(220.453125 0)"/>
       <use xlink:href="#DejaVuSans-13" transform="translate(284.078125 0)"/>
       <use xlink:href="#DejaVuSans-15" transform="translate(347.703125 0)"/>
       <use xlink:href="#DejaVuSans-19" transform="translate(411.328125 0)"/>
      </g>
     </g>
    </g>
    <g id="xtick_4">
     <g id="line2d_7">
      <path d="M 489.083873 209.22546 
L 489.083873 29.917187 
" clip-path="url(#pd5c7983207)" style="fill: none; stroke-dasharray: 2.96,1.28; stroke-dashoffset: 0; stroke: #30363d; stroke-opacity: 0.25; stroke-width: 0.8"/>
     </g>
     <g id="line2d_8">
      <g>
       <use xlink:href="#m9551428683" x="489.083873" y="209.22546" style="fill: #8b949e; stroke: #8b949e; stroke-width: 0.8"/>
      </g>
     </g>
     <g id="text_4">
      <!-- Apr 2026 -->
      <g style="fill: #8b949e" transform="translate(448.107778 245.769286) rotate(-30) scale(0.1 -0.1)">
       <defs>
        <path id="DejaVuSans-24" d="M 2188 4044 
L 1331 1722 
L 3047 1722 
L 2188 4044 
z
M 1831 4666 
L 2547 4666 
L 4325 0 
L 3669 0 
L 3244 1197 
L 1141 1197 
L 716 0 
L 50 0 
L 1831 4666 
z
" transform="scale(0.015625)"/>
        <path id="DejaVuSans-53" d="M 1159 525 
L 1159 -1331 
L 581 -1331 
L 581 3500 
L 1159 3500 
L 1159 2969 
Q 1341 3281 1617 3432 
Q 1894 3584 2278 3584 
Q 2916 3584 3314 3078 
Q 3713 2572 3713 1747 
Q 3713 922 3314 415 
Q 2916 -91 2278 -91 
Q 1894 -91 1617 61 
Q 1341 213 1159 525 
z
M 3116 1747 
Q 3116 2381 2855 2742 
Q 2594 3103 2138 3103 
Q 1681 3103 1420 2742 
Q 1159 2381 1159 1747 
Q 1159 1113 1420 752 
Q 1681 391 2138 391 
Q 2594 391 2855 752 
Q 3116 1113 3116 1747 
z
" transform="scale(0.015625)"/>
       </defs>
       <use xlink:href="#DejaVuSans-24"/>
       <use xlink:href="#DejaVuSans-53" transform="translate(68.40625 0)"/>
       <use xlink:href="#DejaVuSans-55" transform="translate(131.890625 0)"/>
       <use xlink:href="#DejaVuSans-3" transform="translate(173 0)"/>
       <use xlink:href="#DejaVuSans-15" transform="translate(204.78125 0)"/>
       <use xlink:href="#DejaVuSans-13" transform="translate(268.40625 0)"/>
       <use xlink:href="#DejaVuSans-15" transform="translate(332.03125 0)"/>
       <use xlink:href="#DejaVuSans-19" transform="translate(395.65625 0)"/>
      </g>
     </g>
    </g>
    <g id="xtick_5">
     <g id="line2d_9">
      <path d="M 610.321207 209.22546 
L 610.321207 29.917187 
" clip-path="url(#pd5c7983207)" style="fill: none; stroke-dasharray: 2.96,1.28; stroke-dashoffset: 0; stroke: #30363d; stroke-opacity: 0.25; stroke-width: 0.8"/>
     </g>
     <g id="line2d_10">
      <g>
       <use xlink:href="#m9551428683" x="610.321207" y="209.22546" style="fill: #8b949e; stroke: #8b949e; stroke-width: 0.8"/>
      </g>
     </g>
     <g id="text_5">
      <!-- May 2026 -->
      <g style="fill: #8b949e" transform="translate(566.422277 247.456786) rotate(-30) scale(0.1 -0.1)">
       <defs>
        <path id="DejaVuSans-5c" d="M 2059 -325 
Q 1816 -950 1584 -1140 
Q 1353 -1331 966 -1331 
L 506 -1331 
L 506 -850 
L 844 -850 
Q 1081 -850 1212 -737 
Q 1344 -625 1503 -206 
L 1606 56 
L 191 3500 
L 800 3500 
L 1894 763 
L 2988 3500 
L 3597 3500 
L 2059 -325 
z
" transform="scale(0.015625)"/>
       </defs>
       <use xlink:href="#DejaVuSans-30"/>
       <use xlink:href="#DejaVuSans-44" transform="translate(86.28125 0)"/>
       <use xlink:href="#DejaVuSans-5c" transform="translate(147.5625 0)"/>
       <use xlink:href="#DejaVuSans-3" transform="translate(206.75 0)"/>
       <use xlink:href="#DejaVuSans-15" transform="translate(238.53125 0)"/>
       <use xlink:href="#DejaVuSans-13" transform="translate(302.15625 0)"/>
       <use xlink:href="#DejaVuSans-15" transform="translate(365.78125 0)"/>
       <use xlink:href="#DejaVuSans-19" transform="translate(429.40625 0)"/>
      </g>
     </g>
    </g>
    <g id="xtick_6">
     <g id="line2d_11">
      <path d="M 735.599786 209.22546 
L 735.599786 29.917187 
" clip-path="url(#pd5c7983207)" style="fill: none; stroke-dasharray: 2.96,1.28; stroke-dashoffset: 0; stroke: #30363d; stroke-opacity: 0.25; stroke-width: 0.8"/>
     </g>
     <g id="line2d_12">
      <g>
       <use xlink:href="#m9551428683" x="735.599786" y="209.22546" style="fill: #8b949e; stroke: #8b949e; stroke-width: 0.8"/>
      </g>
     </g>
     <g id="text_6">
      <!-- Jun 2026 -->
      <g style="fill: #8b949e" transform="translate(696.074284 244.931786) rotate(-30) scale(0.1 -0.1)">
       <defs>
        <path id="DejaVuSans-58" d="M 544 1381 
L 544 3500 
L 1119 3500 
L 1119 1403 
Q 1119 906 1312 657 
Q 1506 409 1894 409 
Q 2359 409 2629 706 
Q 2900 1003 2900 1516 
L 2900 3500 
L 3475 3500 
L 3475 0 
L 2900 0 
L 2900 538 
Q 2691 219 2414 64 
Q 2138 -91 1772 -91 
Q 1169 -91 856 284 
Q 544 659 544 1381 
z
M 1991 3584 
L 1991 3584 
z
" transform="scale(0.015625)"/>
       </defs>
       <use xlink:href="#DejaVuSans-2d"/>
       <use xlink:href="#DejaVuSans-58" transform="translate(29.5 0)"/>
       <use xlink:href="#DejaVuSans-51" transform="translate(92.875 0)"/>
       <use xlink:href="#DejaVuSans-3" transform="translate(156.25 0)"/>
       <use xlink:href="#DejaVuSans-15" transform="translate(188.03125 0)"/>
       <use xlink:href="#DejaVuSans-13" transform="translate(251.65625 0)"/>
       <use xlink:href="#DejaVuSans-15" transform="translate(315.28125 0)"/>
       <use xlink:href="#DejaVuSans-19" transform="translate(378.90625 0)"/>
      </g>
     </g>
    </g>
    <g id="text_7">
     <!-- Date -->
     <g style="fill: #8b949e" transform="translate(436.720647 261.134933) scale(0.1 -0.1)">
      <defs>
       <path id="DejaVuSans-27" d="M 1259 4147 
L 1259 519 
L 2022 519 
Q 2988 519 3436 956 
Q 3884 1394 3884 2338 
Q 3884 3275 3436 3711 
Q 2988 4147 2022 4147 
L 1259 4147 
z
M 628 4666 
L 1925 4666 
Q 3281 4666 3915 4102 
Q 4550 3538 4550 2338 
Q 4550 1131 3912 565 
Q 3275 0 1925 0 
L 628 0 
L 628 4666 
z
" transform="scale(0.015625)"/>
       <path id="DejaVuSans-57" d="M 1172 4494 
L 1172 3500 
L 2356 3500 
L 2356 3053 
L 1172 3053 
L 1172 1153 
Q 1172 725 1289 603 
Q 1406 481 1766 481 
L 2356 481 
L 2356 0 
L 1766 0 
Q 1100 0 847 248 
Q 594 497 594 1153 
L 594 3053 
L 172 3053 
L 172 3500 
L 594 3500 
L 594 4494 
L 1172 4494 
z
" transform="scale(0.015625)"/>
      </defs>
      <use xlink:href="#DejaVuSans-27"/>
      <use xlink:href="#DejaVuSans-44" transform="translate(77 0)"/>
      <use xlink:href="#DejaVuSans-57" transform="translate(138.28125 0)"/>
      <use xlink:href="#DejaVuSans-48" transform="translate(177.484375 0)"/>
     </g>
    </g>
   </g>
   <g id="matplotlib.axis_2">
    <g id="ytick_1">
     <g id="line2d_13">
      <path d="M 44.142857 203.704238 
L 853.2 203.704238 
" clip-path="url(#pd5c7983207)" style="fill: none; stroke-dasharray: 2.96,1.28; stroke-dashoffset: 0; stroke: #30363d; stroke-opacity: 0.25; stroke-width: 0.8"/>
     </g>
     <g id="line2d_14">
      <defs>
       <path id="m84069d6471" d="M 0 0 
L -3.5 0 
" style="stroke: #8b949e; stroke-width: 0.8"/>
      </defs>
      <g>
       <use xlink:href="#m84069d6471" x="44.142857" y="203.704238" style="fill: #8b949e; stroke: #8b949e; stroke-width: 0.8"/>
      </g>
     </g>
     <g id="text_8">
      <!-- 10 -->
      <g style="fill: #8b949e" transform="translate(24.417857 207.503066) scale(0.1 -0.1)">
       <defs>
        <path id="DejaVuSans-14" d="M 794 531 
L 1825 531 
L 1825 4091 
L 703 3866 
L 703 4441 
L 1819 4666 
L 2450 4666 
L 2450 531 
L 3481 531 
L 3481 0 
L 794 0 
L 794 531 
z
" transform="scale(0.015625)"/>
       </defs>
       <use xlink:href="#DejaVuSans-14"/>
       <use xlink:href="#DejaVuSans-13" transform="translate(63.625 0)"/>
      </g>
     </g>
    </g>
    <g id="ytick_2">
     <g id="line2d_15">
      <path d="M 44.142857 177.412702 
L 853.2 177.412702 
" clip-path="url(#pd5c7983207)" style="fill: none; stroke-dasharray: 2.96,1.28; stroke-dashoffset: 0; stroke: #30363d; stroke-opacity: 0.25; stroke-width: 0.8"/>
     </g>
     <g id="line2d_16">
      <g>
       <use xlink:href="#m84069d6471" x="44.142857" y="177.412702" style="fill: #8b949e; stroke: #8b949e; stroke-width: 0.8"/>
      </g>
     </g>
     <g id="text_9">
      <!-- 20 -->
      <g style="fill: #8b949e" transform="translate(24.417857 181.21153) scale(0.1 -0.1)">
       <use xlink:href="#DejaVuSans-15"/>
       <use xlink:href="#DejaVuSans-13" transform="translate(63.625 0)"/>
      </g>
     </g>
    </g>
    <g id="ytick_3">
     <g id="line2d_17">
      <path d="M 44.142857 151.121167 
L 853.2 151.121167 
" clip-path="url(#pd5c7983207)" style="fill: none; stroke-dasharray: 2.96,1.28; stroke-dashoffset: 0; stroke: #30363d; stroke-opacity: 0.25; stroke-width: 0.8"/>
     </g>
     <g id="line2d_18">
      <g>
       <use xlink:href="#m84069d6471" x="44.142857" y="151.121167" style="fill: #8b949e; stroke: #8b949e; stroke-width: 0.8"/>
      </g>
     </g>
     <g id="text_10">
      <!-- 30 -->
      <g style="fill: #8b949e" transform="translate(24.417857 154.919995) scale(0.1 -0.1)">
       <defs>
        <path id="DejaVuSans-16" d="M 2597 2516 
Q 3050 2419 3304 2112 
Q 3559 1806 3559 1356 
Q 3559 666 3084 287 
Q 2609 -91 1734 -91 
Q 1441 -91 1130 -33 
Q 819 25 488 141 
L 488 750 
Q 750 597 1062 519 
Q 1375 441 1716 441 
Q 2309 441 2620 675 
Q 2931 909 2931 1356 
Q 2931 1769 2642 2001 
Q 2353 2234 1838 2234 
L 1294 2234 
L 1294 2753 
L 1863 2753 
Q 2328 2753 2575 2939 
Q 2822 3125 2822 3475 
Q 2822 3834 2567 4026 
Q 2313 4219 1838 4219 
Q 1578 4219 1281 4162 
Q 984 4106 628 3988 
L 628 4550 
Q 988 4650 1302 4700 
Q 1616 4750 1894 4750 
Q 2613 4750 3031 4423 
Q 3450 4097 3450 3541 
Q 3450 3153 3228 2886 
Q 3006 2619 2597 2516 
z
" transform="scale(0.015625)"/>
       </defs>
       <use xlink:href="#DejaVuSans-16"/>
       <use xlink:href="#DejaVuSans-13" transform="translate(63.625 0)"/>
      </g>
     </g>
    </g>
    <g id="ytick_4">
     <g id="line2d_19">
      <path d="M 44.142857 124.829631 
L 853.2 124.829631 
" clip-path="url(#pd5c7983207)" style="fill: none; stroke-dasharray: 2.96,1.28; stroke-dashoffset: 0; stroke: #30363d; stroke-opacity: 0.25; stroke-width: 0.8"/>
     </g>
     <g id="line2d_20">
      <g>
       <use xlink:href="#m84069d6471" x="44.142857" y="124.829631" style="fill: #8b949e; stroke: #8b949e; stroke-width: 0.8"/>
      </g>
     </g>
     <g id="text_11">
      <!-- 40 -->
      <g style="fill: #8b949e" transform="translate(24.417857 128.628459) scale(0.1 -0.1)">
       <defs>
        <path id="DejaVuSans-17" d="M 2419 4116 
L 825 1625 
L 2419 1625 
L 2419 4116 
z
M 2253 4666 
L 3047 4666 
L 3047 1625 
L 3713 1625 
L 3713 1100 
L 3047 1100 
L 3047 0 
L 2419 0 
L 2419 1100 
L 313 1100 
L 313 1709 
L 2253 4666 
z
" transform="scale(0.015625)"/>
       </defs>
       <use xlink:href="#DejaVuSans-17"/>
       <use xlink:href="#DejaVuSans-13" transform="translate(63.625 0)"/>
      </g>
     </g>
    </g>
    <g id="ytick_5">
     <g id="line2d_21">
      <path d="M 44.142857 98.538095 
L 853.2 98.538095 
" clip-path="url(#pd5c7983207)" style="fill: none; stroke-dasharray: 2.96,1.28; stroke-dashoffset: 0; stroke: #30363d; stroke-opacity: 0.25; stroke-width: 0.8"/>
     </g>
     <g id="line2d_22">
      <g>
       <use xlink:href="#m84069d6471" x="44.142857" y="98.538095" style="fill: #8b949e; stroke: #8b949e; stroke-width: 0.8"/>
      </g>
     </g>
     <g id="text_12">
      <!-- 50 -->
      <g style="fill: #8b949e" transform="translate(24.417857 102.336924) scale(0.1 -0.1)">
       <defs>
        <path id="DejaVuSans-18" d="M 691 4666 
L 3169 4666 
L 3169 4134 
L 1269 4134 
L 1269 2991 
Q 1406 3038 1543 3061 
Q 1681 3084 1819 3084 
Q 2600 3084 3056 2656 
Q 3513 2228 3513 1497 
Q 3513 744 3044 326 
Q 2575 -91 1722 -91 
Q 1428 -91 1123 -41 
Q 819 9 494 109 
L 494 744 
Q 775 591 1075 516 
Q 1375 441 1709 441 
Q 2250 441 2565 725 
Q 2881 1009 2881 1497 
Q 2881 1984 2565 2268 
Q 2250 2553 1709 2553 
Q 1456 2553 1204 2497 
Q 953 2441 691 2322 
L 691 4666 
z
" transform="scale(0.015625)"/>
       </defs>
       <use xlink:href="#DejaVuSans-18"/>
       <use xlink:href="#DejaVuSans-13" transform="translate(63.625 0)"/>
      </g>
     </g>
    </g>
    <g id="ytick_6">
     <g id="line2d_23">
      <path d="M 44.142857 72.24656 
L 853.2 72.24656 
" clip-path="url(#pd5c7983207)" style="fill: none; stroke-dasharray: 2.96,1.28; stroke-dashoffset: 0; stroke: #30363d; stroke-opacity: 0.25; stroke-width: 0.8"/>
     </g>
     <g id="line2d_24">
      <g>
       <use xlink:href="#m84069d6471" x="44.142857" y="72.24656" style="fill: #8b949e; stroke: #8b949e; stroke-width: 0.8"/>
      </g>
     </g>
     <g id="text_13">
      <!-- 60 -->
      <g style="fill: #8b949e" transform="translate(24.417857 76.045388) scale(0.1 -0.1)">
       <use xlink:href="#DejaVuSans-19"/>
       <use xlink:href="#DejaVuSans-13" transform="translate(63.625 0)"/>
      </g>
     </g>
    </g>
    <g id="ytick_7">
     <g id="line2d_25">
      <path d="M 44.142857 45.955024 
L 853.2 45.955024 
" clip-path="url(#pd5c7983207)" style="fill: none; stroke-dasharray: 2.96,1.28; stroke-dashoffset: 0; stroke: #30363d; stroke-opacity: 0.25; stroke-width: 0.8"/>
     </g>
     <g id="line2d_26">
      <g>
       <use xlink:href="#m84069d6471" x="44.142857" y="45.955024" style="fill: #8b949e; stroke: #8b949e; stroke-width: 0.8"/>
      </g>
     </g>
     <g id="text_14">
      <!-- 70 -->
      <g style="fill: #8b949e" transform="translate(24.417857 49.753852) scale(0.1 -0.1)">
       <defs>
        <path id="DejaVuSans-1a" d="M 525 4666 
L 3525 4666 
L 3525 4397 
L 1831 0 
L 1172 0 
L 2766 4134 
L 525 4134 
L 525 4666 
z
" transform="scale(0.015625)"/>
       </defs>
       <use xlink:href="#DejaVuSans-1a"/>
       <use xlink:href="#DejaVuSans-13" transform="translate(63.625 0)"/>
      </g>
     </g>
    </g>
    <g id="text_15">
     <!-- Total Stars -->
     <g style="fill: #8b949e" transform="translate(18.015513 145.696324) rotate(-90) scale(0.1 -0.1)">
      <defs>
       <path id="DejaVuSans-37" d="M -19 4666 
L 3928 4666 
L 3928 4134 
L 2272 4134 
L 2272 0 
L 1638 0 
L 1638 4134 
L -19 4134 
L -19 4666 
z
" transform="scale(0.015625)"/>
       <path id="DejaVuSans-52" d="M 1959 3097 
Q 1497 3097 1228 2736 
Q 959 2375 959 1747 
Q 959 1119 1226 758 
Q 1494 397 1959 397 
Q 2419 397 2687 759 
Q 2956 1122 2956 1747 
Q 2956 2369 2687 2733 
Q 2419 3097 1959 3097 
z
M 1959 3584 
Q 2709 3584 3137 3096 
Q 3566 2609 3566 1747 
Q 3566 888 3137 398 
Q 2709 -91 1959 -91 
Q 1206 -91 779 398 
Q 353 888 353 1747 
Q 353 2609 779 3096 
Q 1206 3584 1959 3584 
z
" transform="scale(0.015625)"/>
       <path id="DejaVuSans-4f" d="M 603 4863 
L 1178 4863 
L 1178 0 
L 603 0 
L 603 4863 
z
" transform="scale(0.015625)"/>
       <path id="DejaVuSans-36" d="M 3425 4513 
L 3425 3897 
Q 3066 4069 2747 4153 
Q 2428 4238 2131 4238 
Q 1616 4238 1336 4038 
Q 1056 3838 1056 3469 
Q 1056 3159 1242 3001 
Q 1428 2844 1947 2747 
L 2328 2669 
Q 3034 2534 3370 2195 
Q 3706 1856 3706 1288 
Q 3706 609 3251 259 
Q 2797 -91 1919 -91 
Q 1588 -91 1214 -16 
Q 841 59 441 206 
L 441 856 
Q 825 641 1194 531 
Q 1563 422 1919 422 
Q 2459 422 2753 634 
Q 3047 847 3047 1241 
Q 3047 1584 2836 1778 
Q 2625 1972 2144 2069 
L 1759 2144 
Q 1053 2284 737 2584 
Q 422 2884 422 3419 
Q 422 4038 858 4394 
Q 1294 4750 2059 4750 
Q 2388 4750 2728 4690 
Q 3069 4631 3425 4513 
z
" transform="scale(0.015625)"/>
       <path id="DejaVuSans-56" d="M 2834 3397 
L 2834 2853 
Q 2591 2978 2328 3040 
Q 2066 3103 1784 3103 
Q 1356 3103 1142 2972 
Q 928 2841 928 2578 
Q 928 2378 1081 2264 
Q 1234 2150 1697 2047 
L 1894 2003 
Q 2506 1872 2764 1633 
Q 3022 1394 3022 966 
Q 3022 478 2636 193 
Q 2250 -91 1575 -91 
Q 1294 -91 989 -36 
Q 684 19 347 128 
L 347 722 
Q 666 556 975 473 
Q 1284 391 1588 391 
Q 1994 391 2212 530 
Q 2431 669 2431 922 
Q 2431 1156 2273 1281 
Q 2116 1406 1581 1522 
L 1381 1569 
Q 847 1681 609 1914 
Q 372 2147 372 2553 
Q 372 3047 722 3315 
Q 1072 3584 1716 3584 
Q 2034 3584 2315 3537 
Q 2597 3491 2834 3397 
z
" transform="scale(0.015625)"/>
      </defs>
      <use xlink:href="#DejaVuSans-37"/>
      <use xlink:href="#DejaVuSans-52" transform="translate(44.09375 0)"/>
      <use xlink:href="#DejaVuSans-57" transform="translate(105.28125 0)"/>
      <use xlink:href="#DejaVuSans-44" transform="translate(144.484375 0)"/>
      <use xlink:href="#DejaVuSans-4f" transform="translate(205.765625 0)"/>
      <use xlink:href="#DejaVuSans-3" transform="translate(233.546875 0)"/>
      <use xlink:href="#DejaVuSans-36" transform="translate(265.328125 0)"/>
      <use xlink:href="#DejaVuSans-57" transform="translate(328.8125 0)"/>
      <use xlink:href="#DejaVuSans-44" transform="translate(368.015625 0)"/>
      <use xlink:href="#DejaVuSans-55" transform="translate(429.296875 0)"/>
      <use xlink:href="#DejaVuSans-56" transform="translate(470.40625 0)"/>
     </g>
    </g>
   </g>
   <g id="line2d_27">
    <path d="M 80.918182 201.075084 
L 812.383431 201.075084 
L 816.424675 38.067564 
L 816.424675 38.067564 
" clip-path="url(#pd5c7983207)" style="fill: none; stroke: #58a6ff; stroke-width: 2.3; stroke-linecap: square"/>
   </g>
   <g id="patch_3">
    <path d="M 44.142857 209.22546 
L 44.142857 29.917187 
" style="fill: none; stroke: #30363d; stroke-width: 0.8; stroke-linejoin: miter; stroke-linecap: square"/>
   </g>
   <g id="patch_4">
    <path d="M 853.2 209.22546 
L 853.2 29.917187 
" style="fill: none; stroke: #30363d; stroke-width: 0.8; stroke-linejoin: miter; stroke-linecap: square"/>
   </g>
   <g id="patch_5">
    <path d="M 44.142857 209.22546 
L 853.2 209.22546 
" style="fill: none; stroke: #30363d; stroke-width: 0.8; stroke-linejoin: miter; stroke-linecap: square"/>
   </g>
   <g id="patch_6">
    <path d="M 44.142857 29.917187 
L 853.2 29.917187 
" style="fill: none; stroke: #30363d; stroke-width: 0.8; stroke-linejoin: miter; stroke-linecap: square"/>
   </g>
   <g id="text_16">
    <!-- Current total: 73 -->
    <g style="fill: #c9d1d9" transform="translate(762.235991 45.066813) scale(0.1 -0.1)">
     <defs>
      <path id="DejaVuSans-26" d="M 4122 4306 
L 4122 3641 
Q 3803 3938 3442 4084 
Q 3081 4231 2675 4231 
Q 1875 4231 1450 3742 
Q 1025 3253 1025 2328 
Q 1025 1406 1450 917 
Q 1875 428 2675 428 
Q 3081 428 3442 575 
Q 3803 722 4122 1019 
L 4122 359 
Q 3791 134 3420 21 
Q 3050 -91 2638 -91 
Q 1578 -91 968 557 
Q 359 1206 359 2328 
Q 359 3453 968 4101 
Q 1578 4750 2638 4750 
Q 3056 4750 3426 4639 
Q 3797 4528 4122 4306 
z
" transform="scale(0.015625)"/>
      <path id="DejaVuSans-1d" d="M 750 794 
L 1409 794 
L 1409 0 
L 750 0 
L 750 794 
z
M 750 3309 
L 1409 3309 
L 1409 2516 
L 750 2516 
L 750 3309 
z
" transform="scale(0.015625)"/>
     </defs>
     <use xlink:href="#DejaVuSans-26"/>
     <use xlink:href="#DejaVuSans-58" transform="translate(69.828125 0)"/>
     <use xlink:href="#DejaVuSans-55" transform="translate(133.203125 0)"/>
     <use xlink:href="#DejaVuSans-55" transform="translate(172.5625 0)"/>
     <use xlink:href="#DejaVuSans-48" transform="translate(211.46875 0)"/>
     <use xlink:href="#DejaVuSans-51" transform="translate(273 0)"/>
     <use xlink:href="#DejaVuSans-57" transform="translate(336.375 0)"/>
     <use xlink:href="#DejaVuSans-3" transform="translate(375.578125 0)"/>
     <use xlink:href="#DejaVuSans-57" transform="translate(407.359375 0)"/>
     <use xlink:href="#DejaVuSans-52" transform="translate(446.5625 0)"/>
     <use xlink:href="#DejaVuSans-57" transform="translate(507.75 0)"/>
     <use xlink:href="#DejaVuSans-44" transform="translate(546.953125 0)"/>
     <use xlink:href="#DejaVuSans-4f" transform="translate(608.234375 0)"/>
     <use xlink:href="#DejaVuSans-1d" transform="translate(636.015625 0)"/>
     <use xlink:href="#DejaVuSans-3" transform="translate(669.703125 0)"/>
     <use xlink:href="#DejaVuSans-1a" transform="translate(701.484375 0)"/>
     <use xlink:href="#DejaVuSans-16" transform="translate(765.109375 0)"/>
    </g>
   </g>
   <g id="text_17">
    <!-- Total Stars Across All Repositories (Last 6 Months) -->
    <g style="fill: #c9d1d9" transform="translate(299.119554 19.917187) scale(0.12 -0.12)">
     <defs>
      <path id="DejaVuSans-46" d="M 3122 3366 
L 3122 2828 
Q 2878 2963 2633 3030 
Q 2388 3097 2138 3097 
Q 1578 3097 1268 2742 
Q 959 2388 959 1747 
Q 959 1106 1268 751 
Q 1578 397 2138 397 
Q 2388 397 2633 464 
Q 2878 531 3122 666 
L 3122 134 
Q 2881 22 2623 -34 
Q 2366 -91 2075 -91 
Q 1284 -91 818 406 
Q 353 903 353 1747 
Q 353 2603 823 3093 
Q 1294 3584 2113 3584 
Q 2378 3584 2631 3529 
Q 2884 3475 3122 3366 
z
" transform="scale(0.015625)"/>
      <path id="DejaVuSans-35" d="M 2841 2188 
Q 3044 2119 3236 1894 
Q 3428 1669 3622 1275 
L 4263 0 
L 3584 0 
L 2988 1197 
Q 2756 1666 2539 1819 
Q 2322 1972 1947 1972 
L 1259 1972 
L 1259 0 
L 628 0 
L 628 4666 
L 2053 4666 
Q 2853 4666 3247 4331 
Q 3641 3997 3641 3322 
Q 3641 2881 3436 2590 
Q 3231 2300 2841 2188 
z
M 1259 4147 
L 1259 2491 
L 2053 2491 
Q 2509 2491 2742 2702 
Q 2975 2913 2975 3322 
Q 2975 3731 2742 3939 
Q 2509 4147 2053 4147 
L 1259 4147 
z
" transform="scale(0.015625)"/>
      <path id="DejaVuSans-4c" d="M 603 3500 
L 1178 3500 
L 1178 0 
L 603 0 
L 603 3500 
z
M 603 4863 
L 1178 4863 
L 1178 4134 
L 603 4134 
L 603 4863 
z
" transform="scale(0.015625)"/>
      <path id="DejaVuSans-b" d="M 1984 4856 
Q 1566 4138 1362 3434 
Q 1159 2731 1159 2009 
Q 1159 1288 1364 580 
Q 1569 -128 1984 -844 
L 1484 -844 
Q 1016 -109 783 600 
Q 550 1309 550 2009 
Q 550 2706 781 3412 
Q 1013 4119 1484 4856 
L 1984 4856 
z
" transform="scale(0.015625)"/>
      <path id="DejaVuSans-2f" d="M 628 4666 
L 1259 4666 
L 1259 531 
L 3531 531 
L 3531 0 
L 628 0 
L 628 4666 
z
" transform="scale(0.015625)"/>
      <path id="DejaVuSans-4b" d="M 3513 2113 
L 3513 0 
L 2938 0 
L 2938 2094 
Q 2938 2591 2744 2837 
Q 2550 3084 2163 3084 
Q 1697 3084 1428 2787 
Q 1159 2491 1159 1978 
L 1159 0 
L 581 0 
L 581 4863 
L 1159 4863 
L 1159 2956 
Q 1366 3272 1645 3428 
Q 1925 3584 2291 3584 
Q 2894 3584 3203 3211 
Q 3513 2838 3513 2113 
z
" transform="scale(0.015625)"/>
      <path id="DejaVuSans-c" d="M 513 4856 
L 1013 4856 
Q 1481 4119 1714 3412 
Q 1947 2706 1947 2009 
Q 1947 1309 1714 600 
Q 1481 -109 1013 -844 
L 513 -844 
Q 928 -128 1133 580 
Q 1338 1288 1338 2009 
Q 1338 2731 1133 3434 
Q 928 4138 513 4856 
z
" transform="scale(0.015625)"/>
     </defs>
     <use xlink:href="#DejaVuSans-37"/>
     <use xlink:href="#DejaVuSans-52" transform="translate(44.09375 0)"/>
     <use xlink:href="#DejaVuSans-57" transform="translate(105.28125 0)"/>
     <use xlink:href="#DejaVuSans-44" transform="translate(144.484375 0)"/>
     <use xlink:href="#DejaVuSans-4f" transform="translate(205.765625 0)"/>
     <use xlink:href="#DejaVuSans-3" transform="translate(233.546875 0)"/>
     <use xlink:href="#DejaVuSans-36" transform="translate(265.328125 0)"/>
     <use xlink:href="#DejaVuSans-57" transform="translate(328.8125 0)"/>
     <use xlink:href="#DejaVuSans-44" transform="translate(368.015625 0)"/>
     <use xlink:href="#DejaVuSans-55" transform="translate(429.296875 0)"/>
     <use xlink:href="#DejaVuSans-56" transform="translate(470.40625 0)"/>
     <use xlink:href="#DejaVuSans-3" transform="translate(522.5 0)"/>
     <use xlink:href="#DejaVuSans-24" transform="translate(554.28125 0)"/>
     <use xlink:href="#DejaVuSans-46" transform="translate(620.9375 0)"/>
     <use xlink:href="#DejaVuSans-55" transform="translate(675.921875 0)"/>
     <use xlink:href="#DejaVuSans-52" transform="translate(714.828125 0)"/>
     <use xlink:href="#DejaVuSans-56" transform="translate(776.015625 0)"/>
     <use xlink:href="#DejaVuSans-56" transform="translate(828.109375 0)"/>
     <use xlink:href="#DejaVuSans-3" transform="translate(880.203125 0)"/>
     <use xlink:href="#DejaVuSans-24" transform="translate(911.984375 0)"/>
     <use xlink:href="#DejaVuSans-4f" transform="translate(980.390625 0)"/>
     <use xlink:href="#DejaVuSans-4f" transform="translate(1008.171875 0)"/>
     <use xlink:href="#DejaVuSans-3" transform="translate(1035.953125 0)"/>
     <use xlink:href="#DejaVuSans-35" transform="translate(1067.734375 0)"/>
     <use xlink:href="#DejaVuSans-48" transform="translate(1132.734375 0)"/>
     <use xlink:href="#DejaVuSans-53" transform="translate(1194.265625 0)"/>
     <use xlink:href="#DejaVuSans-52" transform="translate(1257.75 0)"/>
     <use xlink:href="#DejaVuSans-56" transform="translate(1318.9375 0)"/>
     <use xlink:href="#DejaVuSans-4c" transform="translate(1371.03125 0)"/>
     <use xlink:href="#DejaVuSans-57" transform="translate(1398.8125 0)"/>
     <use xlink:href="#DejaVuSans-52" transform="translate(1438.015625 0)"/>
     <use xlink:href="#DejaVuSans-55" transform="translate(1499.203125 0)"/>
     <use xlink:href="#DejaVuSans-4c" transform="translate(1540.3125 0)"/>
     <use xlink:href="#DejaVuSans-48" transform="translate(1568.09375 0)"/>
     <use xlink:href="#DejaVuSans-56" transform="translate(1629.625 0)"/>
     <use xlink:href="#DejaVuSans-3" transform="translate(1681.71875 0)"/>
     <use xlink:href="#DejaVuSans-b" transform="translate(1713.5 0)"/>
     <use xlink:href="#DejaVuSans-2f" transform="translate(1752.515625 0)"/>
     <use xlink:href="#DejaVuSans-44" transform="translate(1808.234375 0)"/>
     <use xlink:href="#DejaVuSans-56" transform="translate(1869.515625 0)"/>
     <use xlink:href="#DejaVuSans-57" transform="translate(1921.609375 0)"/>
     <use xlink:href="#DejaVuSans-3" transform="translate(1960.8125 0)"/>
     <use xlink:href="#DejaVuSans-19" transform="translate(1992.59375 0)"/>
     <use xlink:href="#DejaVuSans-3" transform="translate(2056.21875 0)"/>
     <use xlink:href="#DejaVuSans-30" transform="translate(2088 0)"/>
     <use xlink:href="#DejaVuSans-52" transform="translate(2174.28125 0)"/>
     <use xlink:href="#DejaVuSans-51" transform="translate(2235.46875 0)"/>
     <use xlink:href="#DejaVuSans-57" transform="translate(2298.84375 0)"/>
     <use xlink:href="#DejaVuSans-4b" transform="translate(2338.046875 0)"/>
     <use xlink:href="#DejaVuSans-56" transform="translate(2401.421875 0)"/>
     <use xlink:href="#DejaVuSans-c" transform="translate(2453.515625 0)"/>
    </g>
   </g>
  </g>
 </g>
 <defs>
  <clipPath id="pd5c7983207">
   <rect x="44.142857" y="29.917187" width="809.057143" height="179.308273"/>
  </clipPath>
 </defs>
</svg>
