<?xml version="1.0" encoding="utf-8" standalone="no"?>
<!DOCTYPE svg PUBLIC "-//W3C//DTD SVG 1.1//EN"
  "http://www.w3.org/Graphics/SVG/1.1/DTD/svg11.dtd">
<svg xmlns:xlink="http://www.w3.org/1999/xlink" width="864pt" height="273.6pt" viewBox="0 0 864 273.6" xmlns="http://www.w3.org/2000/svg" version="1.1">
 <metadata>
  <rdf:RDF xmlns:dc="http://purl.org/dc/elements/1.1/" xmlns:cc="http://creativecommons.org/ns#" xmlns:rdf="http://www.w3.org/1999/02/22-rdf-syntax-ns#">
   <cc:Work>
    <dc:type rdf:resource="http://purl.org/dc/dcmitype/StillImage"/>
    <dc:date>2026-07-02T17:42:32.048752</dc:date>
    <dc:format>image/svg+xml</dc:format>
    <dc:creator>
     <cc:Agent>
      <dc:title>Matplotlib v3.11.0, https://matplotlib.org/</dc:title>
     </cc:Agent>
    </dc:creator>
   </cc:Work>
  </rdf:RDF>
 </metadata>
 <defs>
  <style type="text/css">*{stroke-linejoin: round; stroke-linecap: butt}</style>
 </defs>
 <g id="figure_1">
  <g id="patch_1">
   <path d="M 0 273.6 
L 864 273.6 
L 864 0 
L 0 0 
z
" style="fill: #0d1117"/>
  </g>
  <g id="axes_1">
   <g id="patch_2">
    <path d="M 50.314286 215.396889 
L 853.2 215.396889 
L 853.2 29.917187 
L 50.314286 29.917187 
z
" style="fill: #0d1117"/>
   </g>
   <g id="FillBetweenPolyCollection_1">
    <defs>
     <path id="m3f24d0cf03" d="M 86.809091 -60.003885 
L 86.809091 -60.003885 
L 92.601917 -60.003885 
L 98.394743 -60.003885 
L 104.18757 -60.003885 
L 109.980396 -60.003885 
L 115.773222 -60.003885 
L 121.566048 -60.003885 
L 127.358874 -60.003885 
L 133.151701 -60.003885 
L 138.944527 -60.003885 
L 144.737353 -60.003885 
L 150.530179 -60.003885 
L 156.323006 -60.003885 
L 162.115832 -60.003885 
L 167.908658 -60.003885 
L 173.701484 -60.003885 
L 179.49431 -60.003885 
L 185.287137 -60.003885 
L 191.079963 -60.003885 
L 196.872789 -60.003885 
L 202.665615 -60.003885 
L 208.458442 -60.003885 
L 214.251268 -60.003885 
L 220.044094 -60.003885 
L 225.83692 -60.003885 
L 231.629746 -60.003885 
L 237.422573 -60.003885 
L 243.215399 -60.003885 
L 249.008225 -60.003885 
L 254.801051 -60.003885 
L 260.593878 -60.003885 
L 266.386704 -60.003885 
L 272.17953 -60.003885 
L 277.972356 -60.003885 
L 283.765182 -60.003885 
L 289.558009 -60.003885 
L 295.350835 -60.003885 
L 301.143661 -60.003885 
L 306.936487 -60.003885 
L 312.729314 -60.003885 
L 318.52214 -60.003885 
L 324.314966 -60.003885 
L 330.107792 -60.003885 
L 335.900618 -60.003885 
L 341.693445 -60.003885 
L 347.486271 -60.003885 
L 353.279097 -60.003885 
L 359.071923 -60.003885 
L 364.86475 -60.003885 
L 370.657576 -60.003885 
L 376.450402 -60.003885 
L 382.243228 -60.003885 
L 388.036054 -60.003885 
L 393.828881 -60.003885 
L 399.621707 -60.003885 
L 405.414533 -60.003885 
L 411.207359 -60.003885 
L 417.000186 -60.003885 
L 422.793012 -60.003885 
L 428.585838 -60.003885 
L 434.378664 -60.003885 
L 440.17149 -60.003885 
L 445.964317 -60.003885 
L 451.757143 -60.003885 
L 457.549969 -60.003885 
L 463.342795 -60.003885 
L 469.135622 -60.003885 
L 474.928448 -60.003885 
L 480.721274 -60.003885 
L 486.5141 -60.003885 
L 492.306926 -60.003885 
L 498.099753 -60.003885 
L 503.892579 -60.003885 
L 509.685405 -60.003885 
L 515.478231 -60.003885 
L 521.271058 -60.003885 
L 527.063884 -60.003885 
L 532.85671 -60.003885 
L 538.649536 -60.003885 
L 544.442362 -60.003885 
L 550.235189 -60.003885 
L 556.028015 -60.003885 
L 561.820841 -60.003885 
L 567.613667 -60.003885 
L 573.406494 -60.003885 
L 579.19932 -60.003885 
L 584.992146 -60.003885 
L 590.784972 -60.003885 
L 596.577798 -60.003885 
L 602.370625 -60.003885 
L 608.163451 -60.003885 
L 613.956277 -60.003885 
L 619.749103 -60.003885 
L 625.541929 -60.003885 
L 631.334756 -60.003885 
L 637.127582 -60.003885 
L 642.920408 -60.003885 
L 648.713234 -60.003885 
L 654.506061 -60.003885 
L 660.298887 -60.003885 
L 666.091713 -60.003885 
L 671.884539 -60.003885 
L 677.677365 -60.003885 
L 683.470192 -123.030968 
L 689.263018 -178.854956 
L 695.055844 -178.854956 
L 700.84867 -178.854956 
L 706.641497 -180.65573 
L 712.434323 -180.65573 
L 718.227149 -180.65573 
L 724.019975 -180.65573 
L 729.812801 -180.65573 
L 735.605628 -180.65573 
L 741.398454 -182.456503 
L 747.19128 -182.456503 
L 752.984106 -193.261146 
L 758.776933 -195.06192 
L 764.569759 -200.464241 
L 770.362585 -205.866563 
L 776.155411 -209.46811 
L 781.948237 -214.870432 
L 787.741064 -218.471979 
L 793.53389 -222.073527 
L 799.326716 -232.87817 
L 805.119542 -234.678944 
L 810.912369 -238.280491 
L 816.705195 -241.882039 
L 816.705195 -60.003885 
L 816.705195 -60.003885 
L 810.912369 -60.003885 
L 805.119542 -60.003885 
L 799.326716 -60.003885 
L 793.53389 -60.003885 
L 787.741064 -60.003885 
L 781.948237 -60.003885 
L 776.155411 -60.003885 
L 770.362585 -60.003885 
L 764.569759 -60.003885 
L 758.776933 -60.003885 
L 752.984106 -60.003885 
L 747.19128 -60.003885 
L 741.398454 -60.003885 
L 735.605628 -60.003885 
L 729.812801 -60.003885 
L 724.019975 -60.003885 
L 718.227149 -60.003885 
L 712.434323 -60.003885 
L 706.641497 -60.003885 
L 700.84867 -60.003885 
L 695.055844 -60.003885 
L 689.263018 -60.003885 
L 683.470192 -60.003885 
L 677.677365 -60.003885 
L 671.884539 -60.003885 
L 666.091713 -60.003885 
L 660.298887 -60.003885 
L 654.506061 -60.003885 
L 648.713234 -60.003885 
L 642.920408 -60.003885 
L 637.127582 -60.003885 
L 631.334756 -60.003885 
L 625.541929 -60.003885 
L 619.749103 -60.003885 
L 613.956277 -60.003885 
L 608.163451 -60.003885 
L 602.370625 -60.003885 
L 596.577798 -60.003885 
L 590.784972 -60.003885 
L 584.992146 -60.003885 
L 579.19932 -60.003885 
L 573.406494 -60.003885 
L 567.613667 -60.003885 
L 561.820841 -60.003885 
L 556.028015 -60.003885 
L 550.235189 -60.003885 
L 544.442362 -60.003885 
L 538.649536 -60.003885 
L 532.85671 -60.003885 
L 527.063884 -60.003885 
L 521.271058 -60.003885 
L 515.478231 -60.003885 
L 509.685405 -60.003885 
L 503.892579 -60.003885 
L 498.099753 -60.003885 
L 492.306926 -60.003885 
L 486.5141 -60.003885 
L 480.721274 -60.003885 
L 474.928448 -60.003885 
L 469.135622 -60.003885 
L 463.342795 -60.003885 
L 457.549969 -60.003885 
L 451.757143 -60.003885 
L 445.964317 -60.003885 
L 440.17149 -60.003885 
L 434.378664 -60.003885 
L 428.585838 -60.003885 
L 422.793012 -60.003885 
L 417.000186 -60.003885 
L 411.207359 -60.003885 
L 405.414533 -60.003885 
L 399.621707 -60.003885 
L 393.828881 -60.003885 
L 388.036054 -60.003885 
L 382.243228 -60.003885 
L 376.450402 -60.003885 
L 370.657576 -60.003885 
L 364.86475 -60.003885 
L 359.071923 -60.003885 
L 353.279097 -60.003885 
L 347.486271 -60.003885 
L 341.693445 -60.003885 
L 335.900618 -60.003885 
L 330.107792 -60.003885 
L 324.314966 -60.003885 
L 318.52214 -60.003885 
L 312.729314 -60.003885 
L 306.936487 -60.003885 
L 301.143661 -60.003885 
L 295.350835 -60.003885 
L 289.558009 -60.003885 
L 283.765182 -60.003885 
L 277.972356 -60.003885 
L 272.17953 -60.003885 
L 266.386704 -60.003885 
L 260.593878 -60.003885 
L 254.801051 -60.003885 
L 249.008225 -60.003885 
L 243.215399 -60.003885 
L 237.422573 -60.003885 
L 231.629746 -60.003885 
L 225.83692 -60.003885 
L 220.044094 -60.003885 
L 214.251268 -60.003885 
L 208.458442 -60.003885 
L 202.665615 -60.003885 
L 196.872789 -60.003885 
L 191.079963 -60.003885 
L 185.287137 -60.003885 
L 179.49431 -60.003885 
L 173.701484 -60.003885 
L 167.908658 -60.003885 
L 162.115832 -60.003885 
L 156.323006 -60.003885 
L 150.530179 -60.003885 
L 144.737353 -60.003885 
L 138.944527 -60.003885 
L 133.151701 -60.003885 
L 127.358874 -60.003885 
L 121.566048 -60.003885 
L 115.773222 -60.003885 
L 109.980396 -60.003885 
L 104.18757 -60.003885 
L 98.394743 -60.003885 
L 92.601917 -60.003885 
L 86.809091 -60.003885 
z
" style="stroke: #58a6ff; stroke-opacity: 0.2"/>
    </defs>
    <g clip-path="url(#p842a16b877)">
     <use xlink:href="#m3f24d0cf03" x="0" y="273.6" style="fill: #58a6ff; fill-opacity: 0.2; stroke: #58a6ff; stroke-opacity: 0.2"/>
    </g>
   </g>
   <g id="matplotlib.axis_1">
    <g id="xtick_1">
     <g id="line2d_1">
      <defs>
       <path id="m787f58b850" d="M 0 0 
L 0 3.5 
" style="stroke: #8b949e; stroke-width: 0.8"/>
      </defs>
      <g>
       <use xlink:href="#m787f58b850" x="127.358874" y="215.396889" style="fill: #8b949e; stroke: #8b949e; stroke-width: 0.8"/>
      </g>
     </g>
     <g id="text_1">
      <!-- May 04 -->
      <g style="fill: #8b949e" transform="translate(94.480117 247.265715) rotate(-30) scale(0.1 -0.1)">
       <defs>
        <path id="DejaVuSans-30" d="M 628 4666 
L 1569 4666 
L 2759 1491 
L 3956 4666 
L 4897 4666 
L 4897 0 
L 4281 0 
L 4281 4097 
L 3078 897 
L 2444 897 
L 1241 4097 
L 1241 0 
L 628 0 
L 628 4666 
z
" transform="scale(0.015625)"/>
        <path id="DejaVuSans-44" d="M 2194 1759 
Q 1497 1759 1228 1600 
Q 959 1441 959 1056 
Q 959 750 1161 570 
Q 1363 391 1709 391 
Q 2188 391 2477 730 
Q 2766 1069 2766 1631 
L 2766 1759 
L 2194 1759 
z
M 3341 1997 
L 3341 0 
L 2766 0 
L 2766 531 
Q 2569 213 2275 61 
Q 1981 -91 1556 -91 
Q 1019 -91 701 211 
Q 384 513 384 1019 
Q 384 1609 779 1909 
Q 1175 2209 1959 2209 
L 2766 2209 
L 2766 2266 
Q 2766 2663 2505 2880 
Q 2244 3097 1772 3097 
Q 1472 3097 1187 3025 
Q 903 2953 641 2809 
L 641 3341 
Q 956 3463 1253 3523 
Q 1550 3584 1831 3584 
Q 2591 3584 2966 3190 
Q 3341 2797 3341 1997 
z
" transform="scale(0.015625)"/>
        <path id="DejaVuSans-5c" d="M 2059 -325 
Q 1816 -950 1584 -1140 
Q 1353 -1331 966 -1331 
L 506 -1331 
L 506 -850 
L 844 -850 
Q 1081 -850 1212 -737 
Q 1344 -625 1503 -206 
L 1606 56 
L 191 3500 
L 800 3500 
L 1894 763 
L 2988 3500 
L 3597 3500 
L 2059 -325 
z
" transform="scale(0.015625)"/>
        <path id="DejaVuSans-3" transform="scale(0.015625)"/>
        <path id="DejaVuSans-13" d="M 2034 4250 
Q 1547 4250 1301 3770 
Q 1056 3291 1056 2328 
Q 1056 1369 1301 889 
Q 1547 409 2034 409 
Q 2525 409 2770 889 
Q 3016 1369 3016 2328 
Q 3016 3291 2770 3770 
Q 2525 4250 2034 4250 
z
M 2034 4750 
Q 2819 4750 3233 4129 
Q 3647 3509 3647 2328 
Q 3647 1150 3233 529 
Q 2819 -91 2034 -91 
Q 1250 -91 836 529 
Q 422 1150 422 2328 
Q 422 3509 836 4129 
Q 1250 4750 2034 4750 
z
" transform="scale(0.015625)"/>
        <path id="DejaVuSans-17" d="M 2419 4116 
L 825 1625 
L 2419 1625 
L 2419 4116 
z
M 2253 4666 
L 3047 4666 
L 3047 1625 
L 3713 1625 
L 3713 1100 
L 3047 1100 
L 3047 0 
L 2419 0 
L 2419 1100 
L 313 1100 
L 313 1709 
L 2253 4666 
z
" transform="scale(0.015625)"/>
       </defs>
       <use xlink:href="#DejaVuSans-30"/>
       <use xlink:href="#DejaVuSans-44" transform="translate(86.28125 0)"/>
       <use xlink:href="#DejaVuSans-5c" transform="translate(147.5625 0)"/>
       <use xlink:href="#DejaVuSans-3" transform="translate(206.75 0)"/>
       <use xlink:href="#DejaVuSans-13" transform="translate(238.53125 0)"/>
       <use xlink:href="#DejaVuSans-17" transform="translate(302.15625 0)"/>
      </g>
     </g>
    </g>
    <g id="xtick_2">
     <g id="line2d_2">
      <g>
       <use xlink:href="#m787f58b850" x="208.458442" y="215.396889" style="fill: #8b949e; stroke: #8b949e; stroke-width: 0.8"/>
      </g>
     </g>
     <g id="text_2">
      <!-- May 11 -->
      <g style="fill: #8b949e" transform="translate(175.579684 247.265715) rotate(-30) scale(0.1 -0.1)">
       <defs>
        <path id="DejaVuSans-14" d="M 794 531 
L 1825 531 
L 1825 4091 
L 703 3866 
L 703 4441 
L 1819 4666 
L 2450 4666 
L 2450 531 
L 3481 531 
L 3481 0 
L 794 0 
L 794 531 
z
" transform="scale(0.015625)"/>
       </defs>
       <use xlink:href="#DejaVuSans-30"/>
       <use xlink:href="#DejaVuSans-44" transform="translate(86.28125 0)"/>
       <use xlink:href="#DejaVuSans-5c" transform="translate(147.5625 0)"/>
       <use xlink:href="#DejaVuSans-3" transform="translate(206.75 0)"/>
       <use xlink:href="#DejaVuSans-14" transform="translate(238.53125 0)"/>
       <use xlink:href="#DejaVuSans-14" transform="translate(302.15625 0)"/>
      </g>
     </g>
    </g>
    <g id="xtick_3">
     <g id="line2d_3">
      <g>
       <use xlink:href="#m787f58b850" x="289.558009" y="215.396889" style="fill: #8b949e; stroke: #8b949e; stroke-width: 0.8"/>
      </g>
     </g>
     <g id="text_3">
      <!-- May 18 -->
      <g style="fill: #8b949e" transform="translate(256.679251 247.265715) rotate(-30) scale(0.1 -0.1)">
       <defs>
        <path id="DejaVuSans-1b" d="M 2034 2216 
Q 1584 2216 1326 1975 
Q 1069 1734 1069 1313 
Q 1069 891 1326 650 
Q 1584 409 2034 409 
Q 2484 409 2743 651 
Q 3003 894 3003 1313 
Q 3003 1734 2745 1975 
Q 2488 2216 2034 2216 
z
M 1403 2484 
Q 997 2584 770 2862 
Q 544 3141 544 3541 
Q 544 4100 942 4425 
Q 1341 4750 2034 4750 
Q 2731 4750 3128 4425 
Q 3525 4100 3525 3541 
Q 3525 3141 3298 2862 
Q 3072 2584 2669 2484 
Q 3125 2378 3379 2068 
Q 3634 1759 3634 1313 
Q 3634 634 3220 271 
Q 2806 -91 2034 -91 
Q 1263 -91 848 271 
Q 434 634 434 1313 
Q 434 1759 690 2068 
Q 947 2378 1403 2484 
z
M 1172 3481 
Q 1172 3119 1398 2916 
Q 1625 2713 2034 2713 
Q 2441 2713 2670 2916 
Q 2900 3119 2900 3481 
Q 2900 3844 2670 4047 
Q 2441 4250 2034 4250 
Q 1625 4250 1398 4047 
Q 1172 3844 1172 3481 
z
" transform="scale(0.015625)"/>
       </defs>
       <use xlink:href="#DejaVuSans-30"/>
       <use xlink:href="#DejaVuSans-44" transform="translate(86.28125 0)"/>
       <use xlink:href="#DejaVuSans-5c" transform="translate(147.5625 0)"/>
       <use xlink:href="#DejaVuSans-3" transform="translate(206.75 0)"/>
       <use xlink:href="#DejaVuSans-14" transform="translate(238.53125 0)"/>
       <use xlink:href="#DejaVuSans-1b" transform="translate(302.15625 0)"/>
      </g>
     </g>
    </g>
    <g id="xtick_4">
     <g id="line2d_4">
      <g>
       <use xlink:href="#m787f58b850" x="370.657576" y="215.396889" style="fill: #8b949e; stroke: #8b949e; stroke-width: 0.8"/>
      </g>
     </g>
     <g id="text_4">
      <!-- May 25 -->
      <g style="fill: #8b949e" transform="translate(337.778818 247.265715) rotate(-30) scale(0.1 -0.1)">
       <defs>
        <path id="DejaVuSans-15" d="M 1228 531 
L 3431 531 
L 3431 0 
L 469 0 
L 469 531 
Q 828 903 1448 1529 
Q 2069 2156 2228 2338 
Q 2531 2678 2651 2914 
Q 2772 3150 2772 3378 
Q 2772 3750 2511 3984 
Q 2250 4219 1831 4219 
Q 1534 4219 1204 4116 
Q 875 4013 500 3803 
L 500 4441 
Q 881 4594 1212 4672 
Q 1544 4750 1819 4750 
Q 2544 4750 2975 4387 
Q 3406 4025 3406 3419 
Q 3406 3131 3298 2873 
Q 3191 2616 2906 2266 
Q 2828 2175 2409 1742 
Q 1991 1309 1228 531 
z
" transform="scale(0.015625)"/>
        <path id="DejaVuSans-18" d="M 691 4666 
L 3169 4666 
L 3169 4134 
L 1269 4134 
L 1269 2991 
Q 1406 3038 1543 3061 
Q 1681 3084 1819 3084 
Q 2600 3084 3056 2656 
Q 3513 2228 3513 1497 
Q 3513 744 3044 326 
Q 2575 -91 1722 -91 
Q 1428 -91 1123 -41 
Q 819 9 494 109 
L 494 744 
Q 775 591 1075 516 
Q 1375 441 1709 441 
Q 2250 441 2565 725 
Q 2881 1009 2881 1497 
Q 2881 1984 2565 2268 
Q 2250 2553 1709 2553 
Q 1456 2553 1204 2497 
Q 953 2441 691 2322 
L 691 4666 
z
" transform="scale(0.015625)"/>
       </defs>
       <use xlink:href="#DejaVuSans-30"/>
       <use xlink:href="#DejaVuSans-44" transform="translate(86.28125 0)"/>
       <use xlink:href="#DejaVuSans-5c" transform="translate(147.5625 0)"/>
       <use xlink:href="#DejaVuSans-3" transform="translate(206.75 0)"/>
       <use xlink:href="#DejaVuSans-15" transform="translate(238.53125 0)"/>
       <use xlink:href="#DejaVuSans-18" transform="translate(302.15625 0)"/>
      </g>
     </g>
    </g>
    <g id="xtick_5">
     <g id="line2d_5">
      <g>
       <use xlink:href="#m787f58b850" x="451.757143" y="215.396889" style="fill: #8b949e; stroke: #8b949e; stroke-width: 0.8"/>
      </g>
     </g>
     <g id="text_5">
      <!-- Jun 01 -->
      <g style="fill: #8b949e" transform="translate(423.251814 244.740715) rotate(-30) scale(0.1 -0.1)">
       <defs>
        <path id="DejaVuSans-2d" d="M 628 4666 
L 1259 4666 
L 1259 325 
Q 1259 -519 939 -900 
Q 619 -1281 -91 -1281 
L -331 -1281 
L -331 -750 
L -134 -750 
Q 284 -750 456 -515 
Q 628 -281 628 325 
L 628 4666 
z
" transform="scale(0.015625)"/>
        <path id="DejaVuSans-58" d="M 544 1381 
L 544 3500 
L 1119 3500 
L 1119 1403 
Q 1119 906 1312 657 
Q 1506 409 1894 409 
Q 2359 409 2629 706 
Q 2900 1003 2900 1516 
L 2900 3500 
L 3475 3500 
L 3475 0 
L 2900 0 
L 2900 538 
Q 2691 219 2414 64 
Q 2138 -91 1772 -91 
Q 1169 -91 856 284 
Q 544 659 544 1381 
z
M 1991 3584 
L 1991 3584 
z
" transform="scale(0.015625)"/>
        <path id="DejaVuSans-51" d="M 3513 2113 
L 3513 0 
L 2938 0 
L 2938 2094 
Q 2938 2591 2744 2837 
Q 2550 3084 2163 3084 
Q 1697 3084 1428 2787 
Q 1159 2491 1159 1978 
L 1159 0 
L 581 0 
L 581 3500 
L 1159 3500 
L 1159 2956 
Q 1366 3272 1645 3428 
Q 1925 3584 2291 3584 
Q 2894 3584 3203 3211 
Q 3513 2838 3513 2113 
z
" transform="scale(0.015625)"/>
       </defs>
       <use xlink:href="#DejaVuSans-2d"/>
       <use xlink:href="#DejaVuSans-58" transform="translate(29.5 0)"/>
       <use xlink:href="#DejaVuSans-51" transform="translate(92.875 0)"/>
       <use xlink:href="#DejaVuSans-3" transform="translate(156.25 0)"/>
       <use xlink:href="#DejaVuSans-13" transform="translate(188.03125 0)"/>
       <use xlink:href="#DejaVuSans-14" transform="translate(251.65625 0)"/>
      </g>
     </g>
    </g>
    <g id="xtick_6">
     <g id="line2d_6">
      <g>
       <use xlink:href="#m787f58b850" x="532.85671" y="215.396889" style="fill: #8b949e; stroke: #8b949e; stroke-width: 0.8"/>
      </g>
     </g>
     <g id="text_6">
      <!-- Jun 08 -->
      <g style="fill: #8b949e" transform="translate(504.351381 244.740715) rotate(-30) scale(0.1 -0.1)">
       <use xlink:href="#DejaVuSans-2d"/>
       <use xlink:href="#DejaVuSans-58" transform="translate(29.5 0)"/>
       <use xlink:href="#DejaVuSans-51" transform="translate(92.875 0)"/>
       <use xlink:href="#DejaVuSans-3" transform="translate(156.25 0)"/>
       <use xlink:href="#DejaVuSans-13" transform="translate(188.03125 0)"/>
       <use xlink:href="#DejaVuSans-1b" transform="translate(251.65625 0)"/>
      </g>
     </g>
    </g>
    <g id="xtick_7">
     <g id="line2d_7">
      <g>
       <use xlink:href="#m787f58b850" x="613.956277" y="215.396889" style="fill: #8b949e; stroke: #8b949e; stroke-width: 0.8"/>
      </g>
     </g>
     <g id="text_7">
      <!-- Jun 15 -->
      <g style="fill: #8b949e" transform="translate(585.450948 244.740715) rotate(-30) scale(0.1 -0.1)">
       <use xlink:href="#DejaVuSans-2d"/>
       <use xlink:href="#DejaVuSans-58" transform="translate(29.5 0)"/>
       <use xlink:href="#DejaVuSans-51" transform="translate(92.875 0)"/>
       <use xlink:href="#DejaVuSans-3" transform="translate(156.25 0)"/>
       <use xlink:href="#DejaVuSans-14" transform="translate(188.03125 0)"/>
       <use xlink:href="#DejaVuSans-18" transform="translate(251.65625 0)"/>
      </g>
     </g>
    </g>
    <g id="xtick_8">
     <g id="line2d_8">
      <g>
       <use xlink:href="#m787f58b850" x="695.055844" y="215.396889" style="fill: #8b949e; stroke: #8b949e; stroke-width: 0.8"/>
      </g>
     </g>
     <g id="text_8">
      <!-- Jun 22 -->
      <g style="fill: #8b949e" transform="translate(666.550515 244.740715) rotate(-30) scale(0.1 -0.1)">
       <use xlink:href="#DejaVuSans-2d"/>
       <use xlink:href="#DejaVuSans-58" transform="translate(29.5 0)"/>
       <use xlink:href="#DejaVuSans-51" transform="translate(92.875 0)"/>
       <use xlink:href="#DejaVuSans-3" transform="translate(156.25 0)"/>
       <use xlink:href="#DejaVuSans-15" transform="translate(188.03125 0)"/>
       <use xlink:href="#DejaVuSans-15" transform="translate(251.65625 0)"/>
      </g>
     </g>
    </g>
    <g id="xtick_9">
     <g id="line2d_9">
      <g>
       <use xlink:href="#m787f58b850" x="776.155411" y="215.396889" style="fill: #8b949e; stroke: #8b949e; stroke-width: 0.8"/>
      </g>
     </g>
     <g id="text_9">
      <!-- Jun 29 -->
      <g style="fill: #8b949e" transform="translate(747.650082 244.740715) rotate(-30) scale(0.1 -0.1)">
       <defs>
        <path id="DejaVuSans-1c" d="M 703 97 
L 703 672 
Q 941 559 1184 500 
Q 1428 441 1663 441 
Q 2288 441 2617 861 
Q 2947 1281 2994 2138 
Q 2813 1869 2534 1725 
Q 2256 1581 1919 1581 
Q 1219 1581 811 2004 
Q 403 2428 403 3163 
Q 403 3881 828 4315 
Q 1253 4750 1959 4750 
Q 2769 4750 3195 4129 
Q 3622 3509 3622 2328 
Q 3622 1225 3098 567 
Q 2575 -91 1691 -91 
Q 1453 -91 1209 -44 
Q 966 3 703 97 
z
M 1959 2075 
Q 2384 2075 2632 2365 
Q 2881 2656 2881 3163 
Q 2881 3666 2632 3958 
Q 2384 4250 1959 4250 
Q 1534 4250 1286 3958 
Q 1038 3666 1038 3163 
Q 1038 2656 1286 2365 
Q 1534 2075 1959 2075 
z
" transform="scale(0.015625)"/>
       </defs>
       <use xlink:href="#DejaVuSans-2d"/>
       <use xlink:href="#DejaVuSans-58" transform="translate(29.5 0)"/>
       <use xlink:href="#DejaVuSans-51" transform="translate(92.875 0)"/>
       <use xlink:href="#DejaVuSans-3" transform="translate(156.25 0)"/>
       <use xlink:href="#DejaVuSans-15" transform="translate(188.03125 0)"/>
       <use xlink:href="#DejaVuSans-1c" transform="translate(251.65625 0)"/>
      </g>
     </g>
    </g>
    <g id="text_10">
     <!-- Date -->
     <g style="fill: #8b949e" transform="translate(439.806362 260.943862) scale(0.1 -0.1)">
      <defs>
       <path id="DejaVuSans-27" d="M 1259 4147 
L 1259 519 
L 2022 519 
Q 2988 519 3436 956 
Q 3884 1394 3884 2338 
Q 3884 3275 3436 3711 
Q 2988 4147 2022 4147 
L 1259 4147 
z
M 628 4666 
L 1925 4666 
Q 3281 4666 3915 4102 
Q 4550 3538 4550 2338 
Q 4550 1131 3912 565 
Q 3275 0 1925 0 
L 628 0 
L 628 4666 
z
" transform="scale(0.015625)"/>
       <path id="DejaVuSans-57" d="M 1172 4494 
L 1172 3500 
L 2356 3500 
L 2356 3053 
L 1172 3053 
L 1172 1153 
Q 1172 725 1289 603 
Q 1406 481 1766 481 
L 2356 481 
L 2356 0 
L 1766 0 
Q 1100 0 847 248 
Q 594 497 594 1153 
L 594 3053 
L 172 3053 
L 172 3500 
L 594 3500 
L 594 4494 
L 1172 4494 
z
" transform="scale(0.015625)"/>
       <path id="DejaVuSans-48" d="M 3597 1894 
L 3597 1613 
L 953 1613 
Q 991 1019 1311 708 
Q 1631 397 2203 397 
Q 2534 397 2845 478 
Q 3156 559 3463 722 
L 3463 178 
Q 3153 47 2828 -22 
Q 2503 -91 2169 -91 
Q 1331 -91 842 396 
Q 353 884 353 1716 
Q 353 2575 817 3079 
Q 1281 3584 2069 3584 
Q 2775 3584 3186 3129 
Q 3597 2675 3597 1894 
z
M 3022 2063 
Q 3016 2534 2758 2815 
Q 2500 3097 2075 3097 
Q 1594 3097 1305 2825 
Q 1016 2553 972 2059 
L 3022 2063 
z
" transform="scale(0.015625)"/>
      </defs>
      <use xlink:href="#DejaVuSans-27"/>
      <use xlink:href="#DejaVuSans-44" transform="translate(77 0)"/>
      <use xlink:href="#DejaVuSans-57" transform="translate(138.28125 0)"/>
      <use xlink:href="#DejaVuSans-48" transform="translate(177.484375 0)"/>
     </g>
    </g>
   </g>
   <g id="matplotlib.axis_2">
    <g id="ytick_1">
     <g id="line2d_10">
      <path d="M 50.314286 206.39302 
L 853.2 206.39302 
" clip-path="url(#p842a16b877)" style="fill: none; stroke-dasharray: 2.96,1.28; stroke-dashoffset: 0; stroke: #30363d; stroke-opacity: 0.25; stroke-width: 0.8"/>
     </g>
     <g id="line2d_11">
      <defs>
       <path id="mc90c216087" d="M 0 0 
L -3.5 0 
" style="stroke: #8b949e; stroke-width: 0.8"/>
      </defs>
      <g>
       <use xlink:href="#mc90c216087" x="50.314286" y="206.39302" style="fill: #8b949e; stroke: #8b949e; stroke-width: 0.8"/>
      </g>
     </g>
     <g id="text_11">
      <!-- 15 -->
      <g style="fill: #8b949e" transform="translate(30.589286 210.191848) scale(0.1 -0.1)">
       <use xlink:href="#DejaVuSans-14"/>
       <use xlink:href="#DejaVuSans-18" transform="translate(63.625 0)"/>
      </g>
     </g>
    </g>
    <g id="ytick_2">
     <g id="line2d_12">
      <path d="M 50.314286 179.381413 
L 853.2 179.381413 
" clip-path="url(#p842a16b877)" style="fill: none; stroke-dasharray: 2.96,1.28; stroke-dashoffset: 0; stroke: #30363d; stroke-opacity: 0.25; stroke-width: 0.8"/>
     </g>
     <g id="line2d_13">
      <g>
       <use xlink:href="#mc90c216087" x="50.314286" y="179.381413" style="fill: #8b949e; stroke: #8b949e; stroke-width: 0.8"/>
      </g>
     </g>
     <g id="text_12">
      <!-- 30 -->
      <g style="fill: #8b949e" transform="translate(30.589286 183.180241) scale(0.1 -0.1)">
       <defs>
        <path id="DejaVuSans-16" d="M 2597 2516 
Q 3050 2419 3304 2112 
Q 3559 1806 3559 1356 
Q 3559 666 3084 287 
Q 2609 -91 1734 -91 
Q 1441 -91 1130 -33 
Q 819 25 488 141 
L 488 750 
Q 750 597 1062 519 
Q 1375 441 1716 441 
Q 2309 441 2620 675 
Q 2931 909 2931 1356 
Q 2931 1769 2642 2001 
Q 2353 2234 1838 2234 
L 1294 2234 
L 1294 2753 
L 1863 2753 
Q 2328 2753 2575 2939 
Q 2822 3125 2822 3475 
Q 2822 3834 2567 4026 
Q 2313 4219 1838 4219 
Q 1578 4219 1281 4162 
Q 984 4106 628 3988 
L 628 4550 
Q 988 4650 1302 4700 
Q 1616 4750 1894 4750 
Q 2613 4750 3031 4423 
Q 3450 4097 3450 3541 
Q 3450 3153 3228 2886 
Q 3006 2619 2597 2516 
z
" transform="scale(0.015625)"/>
       </defs>
       <use xlink:href="#DejaVuSans-16"/>
       <use xlink:href="#DejaVuSans-13" transform="translate(63.625 0)"/>
      </g>
     </g>
    </g>
    <g id="ytick_3">
     <g id="line2d_14">
      <path d="M 50.314286 152.369806 
L 853.2 152.369806 
" clip-path="url(#p842a16b877)" style="fill: none; stroke-dasharray: 2.96,1.28; stroke-dashoffset: 0; stroke: #30363d; stroke-opacity: 0.25; stroke-width: 0.8"/>
     </g>
     <g id="line2d_15">
      <g>
       <use xlink:href="#mc90c216087" x="50.314286" y="152.369806" style="fill: #8b949e; stroke: #8b949e; stroke-width: 0.8"/>
      </g>
     </g>
     <g id="text_13">
      <!-- 45 -->
      <g style="fill: #8b949e" transform="translate(30.589286 156.168634) scale(0.1 -0.1)">
       <use xlink:href="#DejaVuSans-17"/>
       <use xlink:href="#DejaVuSans-18" transform="translate(63.625 0)"/>
      </g>
     </g>
    </g>
    <g id="ytick_4">
     <g id="line2d_16">
      <path d="M 50.314286 125.358199 
L 853.2 125.358199 
" clip-path="url(#p842a16b877)" style="fill: none; stroke-dasharray: 2.96,1.28; stroke-dashoffset: 0; stroke: #30363d; stroke-opacity: 0.25; stroke-width: 0.8"/>
     </g>
     <g id="line2d_17">
      <g>
       <use xlink:href="#mc90c216087" x="50.314286" y="125.358199" style="fill: #8b949e; stroke: #8b949e; stroke-width: 0.8"/>
      </g>
     </g>
     <g id="text_14">
      <!-- 60 -->
      <g style="fill: #8b949e" transform="translate(30.589286 129.157027) scale(0.1 -0.1)">
       <defs>
        <path id="DejaVuSans-19" d="M 2113 2584 
Q 1688 2584 1439 2293 
Q 1191 2003 1191 1497 
Q 1191 994 1439 701 
Q 1688 409 2113 409 
Q 2538 409 2786 701 
Q 3034 994 3034 1497 
Q 3034 2003 2786 2293 
Q 2538 2584 2113 2584 
z
M 3366 4563 
L 3366 3988 
Q 3128 4100 2886 4159 
Q 2644 4219 2406 4219 
Q 1781 4219 1451 3797 
Q 1122 3375 1075 2522 
Q 1259 2794 1537 2939 
Q 1816 3084 2150 3084 
Q 2853 3084 3261 2657 
Q 3669 2231 3669 1497 
Q 3669 778 3244 343 
Q 2819 -91 2113 -91 
Q 1303 -91 875 529 
Q 447 1150 447 2328 
Q 447 3434 972 4092 
Q 1497 4750 2381 4750 
Q 2619 4750 2861 4703 
Q 3103 4656 3366 4563 
z
" transform="scale(0.015625)"/>
       </defs>
       <use xlink:href="#DejaVuSans-19"/>
       <use xlink:href="#DejaVuSans-13" transform="translate(63.625 0)"/>
      </g>
     </g>
    </g>
    <g id="ytick_5">
     <g id="line2d_18">
      <path d="M 50.314286 98.346592 
L 853.2 98.346592 
" clip-path="url(#p842a16b877)" style="fill: none; stroke-dasharray: 2.96,1.28; stroke-dashoffset: 0; stroke: #30363d; stroke-opacity: 0.25; stroke-width: 0.8"/>
     </g>
     <g id="line2d_19">
      <g>
       <use xlink:href="#mc90c216087" x="50.314286" y="98.346592" style="fill: #8b949e; stroke: #8b949e; stroke-width: 0.8"/>
      </g>
     </g>
     <g id="text_15">
      <!-- 75 -->
      <g style="fill: #8b949e" transform="translate(30.589286 102.14542) scale(0.1 -0.1)">
       <defs>
        <path id="DejaVuSans-1a" d="M 525 4666 
L 3525 4666 
L 3525 4397 
L 1831 0 
L 1172 0 
L 2766 4134 
L 525 4134 
L 525 4666 
z
" transform="scale(0.015625)"/>
       </defs>
       <use xlink:href="#DejaVuSans-1a"/>
       <use xlink:href="#DejaVuSans-18" transform="translate(63.625 0)"/>
      </g>
     </g>
    </g>
    <g id="ytick_6">
     <g id="line2d_20">
      <path d="M 50.314286 71.334985 
L 853.2 71.334985 
" clip-path="url(#p842a16b877)" style="fill: none; stroke-dasharray: 2.96,1.28; stroke-dashoffset: 0; stroke: #30363d; stroke-opacity: 0.25; stroke-width: 0.8"/>
     </g>
     <g id="line2d_21">
      <g>
       <use xlink:href="#mc90c216087" x="50.314286" y="71.334985" style="fill: #8b949e; stroke: #8b949e; stroke-width: 0.8"/>
      </g>
     </g>
     <g id="text_16">
      <!-- 90 -->
      <g style="fill: #8b949e" transform="translate(30.589286 75.133813) scale(0.1 -0.1)">
       <use xlink:href="#DejaVuSans-1c"/>
       <use xlink:href="#DejaVuSans-13" transform="translate(63.625 0)"/>
      </g>
     </g>
    </g>
    <g id="ytick_7">
     <g id="line2d_22">
      <path d="M 50.314286 44.323378 
L 853.2 44.323378 
" clip-path="url(#p842a16b877)" style="fill: none; stroke-dasharray: 2.96,1.28; stroke-dashoffset: 0; stroke: #30363d; stroke-opacity: 0.25; stroke-width: 0.8"/>
     </g>
     <g id="line2d_23">
      <g>
       <use xlink:href="#mc90c216087" x="50.314286" y="44.323378" style="fill: #8b949e; stroke: #8b949e; stroke-width: 0.8"/>
      </g>
     </g>
     <g id="text_17">
      <!-- 105 -->
      <g style="fill: #8b949e" transform="translate(24.226786 48.122206) scale(0.1 -0.1)">
       <use xlink:href="#DejaVuSans-14"/>
       <use xlink:href="#DejaVuSans-13" transform="translate(63.625 0)"/>
       <use xlink:href="#DejaVuSans-18" transform="translate(127.25 0)"/>
      </g>
     </g>
    </g>
    <g id="text_18">
     <!-- Total Stars -->
     <g style="fill: #8b949e" transform="translate(17.824442 148.782038) rotate(-90) scale(0.1 -0.1)">
      <defs>
       <path id="DejaVuSans-37" d="M -19 4666 
L 3928 4666 
L 3928 4134 
L 2272 4134 
L 2272 0 
L 1638 0 
L 1638 4134 
L -19 4134 
L -19 4666 
z
" transform="scale(0.015625)"/>
       <path id="DejaVuSans-52" d="M 1959 3097 
Q 1497 3097 1228 2736 
Q 959 2375 959 1747 
Q 959 1119 1226 758 
Q 1494 397 1959 397 
Q 2419 397 2687 759 
Q 2956 1122 2956 1747 
Q 2956 2369 2687 2733 
Q 2419 3097 1959 3097 
z
M 1959 3584 
Q 2709 3584 3137 3096 
Q 3566 2609 3566 1747 
Q 3566 888 3137 398 
Q 2709 -91 1959 -91 
Q 1206 -91 779 398 
Q 353 888 353 1747 
Q 353 2609 779 3096 
Q 1206 3584 1959 3584 
z
" transform="scale(0.015625)"/>
       <path id="DejaVuSans-4f" d="M 603 4863 
L 1178 4863 
L 1178 0 
L 603 0 
L 603 4863 
z
" transform="scale(0.015625)"/>
       <path id="DejaVuSans-36" d="M 3425 4513 
L 3425 3897 
Q 3066 4069 2747 4153 
Q 2428 4238 2131 4238 
Q 1616 4238 1336 4038 
Q 1056 3838 1056 3469 
Q 1056 3159 1242 3001 
Q 1428 2844 1947 2747 
L 2328 2669 
Q 3034 2534 3370 2195 
Q 3706 1856 3706 1288 
Q 3706 609 3251 259 
Q 2797 -91 1919 -91 
Q 1588 -91 1214 -16 
Q 841 59 441 206 
L 441 856 
Q 825 641 1194 531 
Q 1563 422 1919 422 
Q 2459 422 2753 634 
Q 3047 847 3047 1241 
Q 3047 1584 2836 1778 
Q 2625 1972 2144 2069 
L 1759 2144 
Q 1053 2284 737 2584 
Q 422 2884 422 3419 
Q 422 4038 858 4394 
Q 1294 4750 2059 4750 
Q 2388 4750 2728 4690 
Q 3069 4631 3425 4513 
z
" transform="scale(0.015625)"/>
       <path id="DejaVuSans-55" d="M 2631 2963 
Q 2534 3019 2420 3045 
Q 2306 3072 2169 3072 
Q 1681 3072 1420 2755 
Q 1159 2438 1159 1844 
L 1159 0 
L 581 0 
L 581 3500 
L 1159 3500 
L 1159 2956 
Q 1341 3275 1631 3429 
Q 1922 3584 2338 3584 
Q 2397 3584 2469 3576 
Q 2541 3569 2628 3553 
L 2631 2963 
z
" transform="scale(0.015625)"/>
       <path id="DejaVuSans-56" d="M 2834 3397 
L 2834 2853 
Q 2591 2978 2328 3040 
Q 2066 3103 1784 3103 
Q 1356 3103 1142 2972 
Q 928 2841 928 2578 
Q 928 2378 1081 2264 
Q 1234 2150 1697 2047 
L 1894 2003 
Q 2506 1872 2764 1633 
Q 3022 1394 3022 966 
Q 3022 478 2636 193 
Q 2250 -91 1575 -91 
Q 1294 -91 989 -36 
Q 684 19 347 128 
L 347 722 
Q 666 556 975 473 
Q 1284 391 1588 391 
Q 1994 391 2212 530 
Q 2431 669 2431 922 
Q 2431 1156 2273 1281 
Q 2116 1406 1581 1522 
L 1381 1569 
Q 847 1681 609 1914 
Q 372 2147 372 2553 
Q 372 3047 722 3315 
Q 1072 3584 1716 3584 
Q 2034 3584 2315 3537 
Q 2597 3491 2834 3397 
z
" transform="scale(0.015625)"/>
      </defs>
      <use xlink:href="#DejaVuSans-37"/>
      <use xlink:href="#DejaVuSans-52" transform="translate(44.09375 0)"/>
      <use xlink:href="#DejaVuSans-57" transform="translate(105.28125 0)"/>
      <use xlink:href="#DejaVuSans-44" transform="translate(144.484375 0)"/>
      <use xlink:href="#DejaVuSans-4f" transform="translate(205.765625 0)"/>
      <use xlink:href="#DejaVuSans-3" transform="translate(233.546875 0)"/>
      <use xlink:href="#DejaVuSans-36" transform="translate(265.328125 0)"/>
      <use xlink:href="#DejaVuSans-57" transform="translate(328.8125 0)"/>
      <use xlink:href="#DejaVuSans-44" transform="translate(368.015625 0)"/>
      <use xlink:href="#DejaVuSans-55" transform="translate(429.296875 0)"/>
      <use xlink:href="#DejaVuSans-56" transform="translate(470.40625 0)"/>
     </g>
    </g>
   </g>
   <g id="line2d_24">
    <path d="M 86.809091 213.596115 
L 92.601917 213.596115 
L 98.394743 213.596115 
L 104.18757 213.596115 
L 109.980396 213.596115 
L 115.773222 213.596115 
L 121.566048 213.596115 
L 127.358874 213.596115 
L 133.151701 213.596115 
L 138.944527 213.596115 
L 144.737353 213.596115 
L 150.530179 213.596115 
L 156.323006 213.596115 
L 162.115832 213.596115 
L 167.908658 213.596115 
L 173.701484 213.596115 
L 179.49431 213.596115 
L 185.287137 213.596115 
L 191.079963 213.596115 
L 196.872789 213.596115 
L 202.665615 213.596115 
L 208.458442 213.596115 
L 214.251268 213.596115 
L 220.044094 213.596115 
L 225.83692 213.596115 
L 231.629746 213.596115 
L 237.422573 213.596115 
L 243.215399 213.596115 
L 249.008225 213.596115 
L 254.801051 213.596115 
L 260.593878 213.596115 
L 266.386704 213.596115 
L 272.17953 213.596115 
L 277.972356 213.596115 
L 283.765182 213.596115 
L 289.558009 213.596115 
L 295.350835 213.596115 
L 301.143661 213.596115 
L 306.936487 213.596115 
L 312.729314 213.596115 
L 318.52214 213.596115 
L 324.314966 213.596115 
L 330.107792 213.596115 
L 335.900618 213.596115 
L 341.693445 213.596115 
L 347.486271 213.596115 
L 353.279097 213.596115 
L 359.071923 213.596115 
L 364.86475 213.596115 
L 370.657576 213.596115 
L 376.450402 213.596115 
L 382.243228 213.596115 
L 388.036054 213.596115 
L 393.828881 213.596115 
L 399.621707 213.596115 
L 405.414533 213.596115 
L 411.207359 213.596115 
L 417.000186 213.596115 
L 422.793012 213.596115 
L 428.585838 213.596115 
L 434.378664 213.596115 
L 440.17149 213.596115 
L 445.964317 213.596115 
L 451.757143 213.596115 
L 457.549969 213.596115 
L 463.342795 213.596115 
L 469.135622 213.596115 
L 474.928448 213.596115 
L 480.721274 213.596115 
L 486.5141 213.596115 
L 492.306926 213.596115 
L 498.099753 213.596115 
L 503.892579 213.596115 
L 509.685405 213.596115 
L 515.478231 213.596115 
L 521.271058 213.596115 
L 527.063884 213.596115 
L 532.85671 213.596115 
L 538.649536 213.596115 
L 544.442362 213.596115 
L 550.235189 213.596115 
L 556.028015 213.596115 
L 561.820841 213.596115 
L 567.613667 213.596115 
L 573.406494 213.596115 
L 579.19932 213.596115 
L 584.992146 213.596115 
L 590.784972 213.596115 
L 596.577798 213.596115 
L 602.370625 213.596115 
L 608.163451 213.596115 
L 613.956277 213.596115 
L 619.749103 213.596115 
L 625.541929 213.596115 
L 631.334756 213.596115 
L 637.127582 213.596115 
L 642.920408 213.596115 
L 648.713234 213.596115 
L 654.506061 213.596115 
L 660.298887 213.596115 
L 666.091713 213.596115 
L 671.884539 213.596115 
L 677.677365 213.596115 
L 683.470192 150.569032 
L 689.263018 94.745044 
L 695.055844 94.745044 
L 700.84867 94.745044 
L 706.641497 92.94427 
L 712.434323 92.94427 
L 718.227149 92.94427 
L 724.019975 92.94427 
L 729.812801 92.94427 
L 735.605628 92.94427 
L 741.398454 91.143497 
L 747.19128 91.143497 
L 752.984106 80.338854 
L 758.776933 78.53808 
L 764.569759 73.135759 
L 770.362585 67.733437 
L 776.155411 64.13189 
L 781.948237 58.729568 
L 787.741064 55.128021 
L 793.53389 51.526473 
L 799.326716 40.72183 
L 805.119542 38.921056 
L 810.912369 35.319509 
L 816.705195 31.717961 
" clip-path="url(#p842a16b877)" style="fill: none; stroke: #58a6ff; stroke-width: 2.3; stroke-linecap: square"/>
   </g>
   <g id="patch_3">
    <path d="M 50.314286 215.396889 
L 50.314286 29.917187 
" style="fill: none; stroke: #30363d; stroke-width: 0.8; stroke-linejoin: miter; stroke-linecap: square"/>
   </g>
   <g id="patch_4">
    <path d="M 853.2 215.396889 
L 853.2 29.917187 
" style="fill: none; stroke: #30363d; stroke-width: 0.8; stroke-linejoin: miter; stroke-linecap: square"/>
   </g>
   <g id="patch_5">
    <path d="M 50.314286 215.396889 
L 853.2 215.396889 
" style="fill: none; stroke: #30363d; stroke-width: 0.8; stroke-linejoin: miter; stroke-linecap: square"/>
   </g>
   <g id="patch_6">
    <path d="M 50.314286 29.917187 
L 853.2 29.917187 
" style="fill: none; stroke: #30363d; stroke-width: 0.8; stroke-linejoin: miter; stroke-linecap: square"/>
   </g>
   <g id="text_19">
    <!-- Current total stars: 112 -->
    <g style="fill: #c9d1d9" transform="translate(728.178955 45.498813) scale(0.1 -0.1)">
     <defs>
      <path id="DejaVuSans-26" d="M 4122 4306 
L 4122 3641 
Q 3803 3938 3442 4084 
Q 3081 4231 2675 4231 
Q 1875 4231 1450 3742 
Q 1025 3253 1025 2328 
Q 1025 1406 1450 917 
Q 1875 428 2675 428 
Q 3081 428 3442 575 
Q 3803 722 4122 1019 
L 4122 359 
Q 3791 134 3420 21 
Q 3050 -91 2638 -91 
Q 1578 -91 968 557 
Q 359 1206 359 2328 
Q 359 3453 968 4101 
Q 1578 4750 2638 4750 
Q 3056 4750 3426 4639 
Q 3797 4528 4122 4306 
z
" transform="scale(0.015625)"/>
      <path id="DejaVuSans-1d" d="M 750 794 
L 1409 794 
L 1409 0 
L 750 0 
L 750 794 
z
M 750 3309 
L 1409 3309 
L 1409 2516 
L 750 2516 
L 750 3309 
z
" transform="scale(0.015625)"/>
     </defs>
     <use xlink:href="#DejaVuSans-26"/>
     <use xlink:href="#DejaVuSans-58" transform="translate(69.828125 0)"/>
     <use xlink:href="#DejaVuSans-55" transform="translate(133.203125 0)"/>
     <use xlink:href="#DejaVuSans-55" transform="translate(172.5625 0)"/>
     <use xlink:href="#DejaVuSans-48" transform="translate(211.46875 0)"/>
     <use xlink:href="#DejaVuSans-51" transform="translate(273 0)"/>
     <use xlink:href="#DejaVuSans-57" transform="translate(336.375 0)"/>
     <use xlink:href="#DejaVuSans-3" transform="translate(375.578125 0)"/>
     <use xlink:href="#DejaVuSans-57" transform="translate(407.359375 0)"/>
     <use xlink:href="#DejaVuSans-52" transform="translate(446.5625 0)"/>
     <use xlink:href="#DejaVuSans-57" transform="translate(507.75 0)"/>
     <use xlink:href="#DejaVuSans-44" transform="translate(546.953125 0)"/>
     <use xlink:href="#DejaVuSans-4f" transform="translate(608.234375 0)"/>
     <use xlink:href="#DejaVuSans-3" transform="translate(636.015625 0)"/>
     <use xlink:href="#DejaVuSans-56" transform="translate(667.796875 0)"/>
     <use xlink:href="#DejaVuSans-57" transform="translate(719.890625 0)"/>
     <use xlink:href="#DejaVuSans-44" transform="translate(759.09375 0)"/>
     <use xlink:href="#DejaVuSans-55" transform="translate(820.375 0)"/>
     <use xlink:href="#DejaVuSans-56" transform="translate(861.484375 0)"/>
     <use xlink:href="#DejaVuSans-1d" transform="translate(913.578125 0)"/>
     <use xlink:href="#DejaVuSans-3" transform="translate(947.265625 0)"/>
     <use xlink:href="#DejaVuSans-14" transform="translate(979.046875 0)"/>
     <use xlink:href="#DejaVuSans-14" transform="translate(1042.671875 0)"/>
     <use xlink:href="#DejaVuSans-15" transform="translate(1106.296875 0)"/>
    </g>
   </g>
   <g id="text_20">
    <!-- Total Stars Across All Repositories (Last 9 Weeks, 12h Granularity) -->
    <g style="fill: #c9d1d9" transform="translate(253.635268 19.917187) scale(0.12 -0.12)">
     <defs>
      <path id="DejaVuSans-24" d="M 2188 4044 
L 1331 1722 
L 3047 1722 
L 2188 4044 
z
M 1831 4666 
L 2547 4666 
L 4325 0 
L 3669 0 
L 3244 1197 
L 1141 1197 
L 716 0 
L 50 0 
L 1831 4666 
z
" transform="scale(0.015625)"/>
      <path id="DejaVuSans-46" d="M 3122 3366 
L 3122 2828 
Q 2878 2963 2633 3030 
Q 2388 3097 2138 3097 
Q 1578 3097 1268 2742 
Q 959 2388 959 1747 
Q 959 1106 1268 751 
Q 1578 397 2138 397 
Q 2388 397 2633 464 
Q 2878 531 3122 666 
L 3122 134 
Q 2881 22 2623 -34 
Q 2366 -91 2075 -91 
Q 1284 -91 818 406 
Q 353 903 353 1747 
Q 353 2603 823 3093 
Q 1294 3584 2113 3584 
Q 2378 3584 2631 3529 
Q 2884 3475 3122 3366 
z
" transform="scale(0.015625)"/>
      <path id="DejaVuSans-35" d="M 2841 2188 
Q 3044 2119 3236 1894 
Q 3428 1669 3622 1275 
L 4263 0 
L 3584 0 
L 2988 1197 
Q 2756 1666 2539 1819 
Q 2322 1972 1947 1972 
L 1259 1972 
L 1259 0 
L 628 0 
L 628 4666 
L 2053 4666 
Q 2853 4666 3247 4331 
Q 3641 3997 3641 3322 
Q 3641 2881 3436 2590 
Q 3231 2300 2841 2188 
z
M 1259 4147 
L 1259 2491 
L 2053 2491 
Q 2509 2491 2742 2702 
Q 2975 2913 2975 3322 
Q 2975 3731 2742 3939 
Q 2509 4147 2053 4147 
L 1259 4147 
z
" transform="scale(0.015625)"/>
      <path id="DejaVuSans-53" d="M 1159 525 
L 1159 -1331 
L 581 -1331 
L 581 3500 
L 1159 3500 
L 1159 2969 
Q 1341 3281 1617 3432 
Q 1894 3584 2278 3584 
Q 2916 3584 3314 3078 
Q 3713 2572 3713 1747 
Q 3713 922 3314 415 
Q 2916 -91 2278 -91 
Q 1894 -91 1617 61 
Q 1341 213 1159 525 
z
M 3116 1747 
Q 3116 2381 2855 2742 
Q 2594 3103 2138 3103 
Q 1681 3103 1420 2742 
Q 1159 2381 1159 1747 
Q 1159 1113 1420 752 
Q 1681 391 2138 391 
Q 2594 391 2855 752 
Q 3116 1113 3116 1747 
z
" transform="scale(0.015625)"/>
      <path id="DejaVuSans-4c" d="M 603 3500 
L 1178 3500 
L 1178 0 
L 603 0 
L 603 3500 
z
M 603 4863 
L 1178 4863 
L 1178 4134 
L 603 4134 
L 603 4863 
z
" transform="scale(0.015625)"/>
      <path id="DejaVuSans-b" d="M 1984 4856 
Q 1566 4138 1362 3434 
Q 1159 2731 1159 2009 
Q 1159 1288 1364 580 
Q 1569 -128 1984 -844 
L 1484 -844 
Q 1016 -109 783 600 
Q 550 1309 550 2009 
Q 550 2706 781 3412 
Q 1013 4119 1484 4856 
L 1984 4856 
z
" transform="scale(0.015625)"/>
      <path id="DejaVuSans-2f" d="M 628 4666 
L 1259 4666 
L 1259 531 
L 3531 531 
L 3531 0 
L 628 0 
L 628 4666 
z
" transform="scale(0.015625)"/>
      <path id="DejaVuSans-3a" d="M 213 4666 
L 850 4666 
L 1831 722 
L 2809 4666 
L 3519 4666 
L 4500 722 
L 5478 4666 
L 6119 4666 
L 4947 0 
L 4153 0 
L 3169 4050 
L 2175 0 
L 1381 0 
L 213 4666 
z
" transform="scale(0.015625)"/>
      <path id="DejaVuSans-4e" d="M 581 4863 
L 1159 4863 
L 1159 1991 
L 2875 3500 
L 3609 3500 
L 1753 1863 
L 3688 0 
L 2938 0 
L 1159 1709 
L 1159 0 
L 581 0 
L 581 4863 
z
" transform="scale(0.015625)"/>
      <path id="DejaVuSans-f" d="M 750 794 
L 1409 794 
L 1409 256 
L 897 -744 
L 494 -744 
L 750 256 
L 750 794 
z
" transform="scale(0.015625)"/>
      <path id="DejaVuSans-4b" d="M 3513 2113 
L 3513 0 
L 2938 0 
L 2938 2094 
Q 2938 2591 2744 2837 
Q 2550 3084 2163 3084 
Q 1697 3084 1428 2787 
Q 1159 2491 1159 1978 
L 1159 0 
L 581 0 
L 581 4863 
L 1159 4863 
L 1159 2956 
Q 1366 3272 1645 3428 
Q 1925 3584 2291 3584 
Q 2894 3584 3203 3211 
Q 3513 2838 3513 2113 
z
" transform="scale(0.015625)"/>
      <path id="DejaVuSans-2a" d="M 3809 666 
L 3809 1919 
L 2778 1919 
L 2778 2438 
L 4434 2438 
L 4434 434 
Q 4069 175 3628 42 
Q 3188 -91 2688 -91 
Q 1594 -91 976 548 
Q 359 1188 359 2328 
Q 359 3472 976 4111 
Q 1594 4750 2688 4750 
Q 3144 4750 3555 4637 
Q 3966 4525 4313 4306 
L 4313 3634 
Q 3963 3931 3569 4081 
Q 3175 4231 2741 4231 
Q 1884 4231 1454 3753 
Q 1025 3275 1025 2328 
Q 1025 1384 1454 906 
Q 1884 428 2741 428 
Q 3075 428 3337 486 
Q 3600 544 3809 666 
z
" transform="scale(0.015625)"/>
      <path id="DejaVuSans-c" d="M 513 4856 
L 1013 4856 
Q 1481 4119 1714 3412 
Q 1947 2706 1947 2009 
Q 1947 1309 1714 600 
Q 1481 -109 1013 -844 
L 513 -844 
Q 928 -128 1133 580 
Q 1338 1288 1338 2009 
Q 1338 2731 1133 3434 
Q 928 4138 513 4856 
z
" transform="scale(0.015625)"/>
     </defs>
     <use xlink:href="#DejaVuSans-37"/>
     <use xlink:href="#DejaVuSans-52" transform="translate(44.09375 0)"/>
     <use xlink:href="#DejaVuSans-57" transform="translate(105.28125 0)"/>
     <use xlink:href="#DejaVuSans-44" transform="translate(144.484375 0)"/>
     <use xlink:href="#DejaVuSans-4f" transform="translate(205.765625 0)"/>
     <use xlink:href="#DejaVuSans-3" transform="translate(233.546875 0)"/>
     <use xlink:href="#DejaVuSans-36" transform="translate(265.328125 0)"/>
     <use xlink:href="#DejaVuSans-57" transform="translate(328.8125 0)"/>
     <use xlink:href="#DejaVuSans-44" transform="translate(368.015625 0)"/>
     <use xlink:href="#DejaVuSans-55" transform="translate(429.296875 0)"/>
     <use xlink:href="#DejaVuSans-56" transform="translate(470.40625 0)"/>
     <use xlink:href="#DejaVuSans-3" transform="translate(522.5 0)"/>
     <use xlink:href="#DejaVuSans-24" transform="translate(554.28125 0)"/>
     <use xlink:href="#DejaVuSans-46" transform="translate(620.9375 0)"/>
     <use xlink:href="#DejaVuSans-55" transform="translate(675.921875 0)"/>
     <use xlink:href="#DejaVuSans-52" transform="translate(714.828125 0)"/>
     <use xlink:href="#DejaVuSans-56" transform="translate(776.015625 0)"/>
     <use xlink:href="#DejaVuSans-56" transform="translate(828.109375 0)"/>
     <use xlink:href="#DejaVuSans-3" transform="translate(880.203125 0)"/>
     <use xlink:href="#DejaVuSans-24" transform="translate(911.984375 0)"/>
     <use xlink:href="#DejaVuSans-4f" transform="translate(980.390625 0)"/>
     <use xlink:href="#DejaVuSans-4f" transform="translate(1008.171875 0)"/>
     <use xlink:href="#DejaVuSans-3" transform="translate(1035.953125 0)"/>
     <use xlink:href="#DejaVuSans-35" transform="translate(1067.734375 0)"/>
     <use xlink:href="#DejaVuSans-48" transform="translate(1132.734375 0)"/>
     <use xlink:href="#DejaVuSans-53" transform="translate(1194.265625 0)"/>
     <use xlink:href="#DejaVuSans-52" transform="translate(1257.75 0)"/>
     <use xlink:href="#DejaVuSans-56" transform="translate(1318.9375 0)"/>
     <use xlink:href="#DejaVuSans-4c" transform="translate(1371.03125 0)"/>
     <use xlink:href="#DejaVuSans-57" transform="translate(1398.8125 0)"/>
     <use xlink:href="#DejaVuSans-52" transform="translate(1438.015625 0)"/>
     <use xlink:href="#DejaVuSans-55" transform="translate(1499.203125 0)"/>
     <use xlink:href="#DejaVuSans-4c" transform="translate(1540.3125 0)"/>
     <use xlink:href="#DejaVuSans-48" transform="translate(1568.09375 0)"/>
     <use xlink:href="#DejaVuSans-56" transform="translate(1629.625 0)"/>
     <use xlink:href="#DejaVuSans-3" transform="translate(1681.71875 0)"/>
     <use xlink:href="#DejaVuSans-b" transform="translate(1713.5 0)"/>
     <use xlink:href="#DejaVuSans-2f" transform="translate(1752.515625 0)"/>
     <use xlink:href="#DejaVuSans-44" transform="translate(1808.234375 0)"/>
     <use xlink:href="#DejaVuSans-56" transform="translate(1869.515625 0)"/>
     <use xlink:href="#DejaVuSans-57" transform="translate(1921.609375 0)"/>
     <use xlink:href="#DejaVuSans-3" transform="translate(1960.8125 0)"/>
     <use xlink:href="#DejaVuSans-1c" transform="translate(1992.59375 0)"/>
     <use xlink:href="#DejaVuSans-3" transform="translate(2056.21875 0)"/>
     <use xlink:href="#DejaVuSans-3a" transform="translate(2088 0)"/>
     <use xlink:href="#DejaVuSans-48" transform="translate(2181.015625 0)"/>
     <use xlink:href="#DejaVuSans-48" transform="translate(2242.546875 0)"/>
     <use xlink:href="#DejaVuSans-4e" transform="translate(2304.078125 0)"/>
     <use xlink:href="#DejaVuSans-56" transform="translate(2361.984375 0)"/>
     <use xlink:href="#DejaVuSans-f" transform="translate(2414.078125 0)"/>
     <use xlink:href="#DejaVuSans-3" transform="translate(2445.859375 0)"/>
     <use xlink:href="#DejaVuSans-14" transform="translate(2477.640625 0)"/>
     <use xlink:href="#DejaVuSans-15" transform="translate(2541.265625 0)"/>
     <use xlink:href="#DejaVuSans-4b" transform="translate(2604.890625 0)"/>
     <use xlink:href="#DejaVuSans-3" transform="translate(2668.265625 0)"/>
     <use xlink:href="#DejaVuSans-2a" transform="translate(2700.046875 0)"/>
     <use xlink:href="#DejaVuSans-55" transform="translate(2777.53125 0)"/>
     <use xlink:href="#DejaVuSans-44" transform="translate(2818.640625 0)"/>
     <use xlink:href="#DejaVuSans-51" transform="translate(2879.921875 0)"/>
     <use xlink:href="#DejaVuSans-58" transform="translate(2943.296875 0)"/>
     <use xlink:href="#DejaVuSans-4f" transform="translate(3006.671875 0)"/>
     <use xlink:href="#DejaVuSans-44" transform="translate(3034.453125 0)"/>
     <use xlink:href="#DejaVuSans-55" transform="translate(3095.734375 0)"/>
     <use xlink:href="#DejaVuSans-4c" transform="translate(3136.84375 0)"/>
     <use xlink:href="#DejaVuSans-57" transform="translate(3164.625 0)"/>
     <use xlink:href="#DejaVuSans-5c" transform="translate(3203.828125 0)"/>
     <use xlink:href="#DejaVuSans-c" transform="translate(3263.015625 0)"/>
    </g>
   </g>
  </g>
 </g>
 <defs>
  <clipPath id="p842a16b877">
   <rect x="50.314286" y="29.917187" width="802.885714" height="185.479701"/>
  </clipPath>
 </defs>
</svg>
